# File produced by Open Asset Import Library (http://www.assimp.sf.net)
# (assimp v3.1.128981410)

mtllib Golem.mtl

# vertex positions
v -11.182121 390.778198 -49.678783
v 1.098806 418.477722 -19.727795
v 42.074829 418.477722 -19.727795
v 54.355766 390.778198 -49.678783
v 71.049240 418.477722 -20.050579
v 100.698044 390.778198 -32.633709
v 71.049240 418.477722 21.933746
v 101.691772 390.430237 40.847969
v 42.074829 418.477722 50.908173
v 55.521786 375.276733 92.518768
v 1.098814 418.477722 50.908173
v -12.348133 375.276733 92.518768
v -27.875618 418.477722 21.933746
v -58.518127 390.430237 40.847977
v -27.875626 418.477722 -20.050575
v -57.524414 390.778198 -32.633701
v -59.215958 356.269470 -37.931602
v -11.884575 356.092804 -62.321213
v -65.752113 356.056580 53.019379
v -1.962811 346.123596 98.577164
v 45.136459 346.123596 98.577164
v 108.925758 356.056580 53.019371
v 102.389595 356.269470 -37.931614
v 55.058205 356.092804 -62.321213
v -13.004520 311.376648 -57.731201
v -11.043007 341.677979 -63.090824
v 54.216644 341.677979 -63.090824
v 56.178150 311.376648 -57.731201
v 100.362183 341.886200 -38.268425
v 105.097702 311.466583 -35.851032
v 100.362183 341.949158 27.833496
v 106.014336 311.117706 43.493912
v 44.335899 341.894257 81.953125
v 52.101063 310.726135 94.794128
v -1.162249 341.894257 81.953125
v -8.927410 310.726135 94.794128
v -57.188545 341.949158 27.833504
v -62.840683 311.117706 43.493927
v -57.188560 341.886200 -38.268417
v -61.924072 311.466583 -35.851028
v -53.524910 299.224457 -30.736647
v -9.541008 299.201172 -48.131943
v -55.253571 299.134186 38.594353
v -9.372005 299.032806 89.817719
v 52.545654 299.032806 89.817719
v 98.427216 299.134186 38.594345
v 96.698555 299.224457 -30.736656
v 52.714645 299.201172 -48.131943
v -65.363159 352.784454 51.357910
v -59.076454 352.665100 -38.268417
v -1.105577 343.346466 95.879745
v 44.279228 343.346466 95.879745
v 108.536789 352.784454 51.357903
v 102.250084 352.665100 -38.268425
v 54.994740 352.503357 -63.090824
v -11.821102 352.503357 -63.090824
v 109.300735 271.506470 13.619591
v 119.017700 302.037445 13.119652
v 119.534370 308.003937 15.275185
v 118.459641 308.085236 45.388695
v 117.196358 297.946625 49.055504
v 109.097885 275.167450 43.373581
v 57.462322 273.001495 100.568390
v 58.145355 306.006805 106.890457
v 54.857098 314.656464 107.446045
v 35.176682 320.793304 107.446045
v 15.496269 309.404572 107.446045
v -4.184145 313.634918 107.446045
v -12.976929 308.606262 107.086609
v -14.956757 302.975464 106.752106
v -14.288673 272.991089 100.568390
v 52.962982 276.508881 90.661392
v -9.789330 276.498901 90.661392
v -10.621544 305.436035 96.523590
v -8.653366 311.063629 96.849319
v 0.130039 316.097778 97.199829
v 16.934328 311.867432 97.199829
v 33.738617 323.256165 97.199829
v 50.542904 317.119324 97.199829
v 53.814335 308.467834 96.658417
v -6.279081 245.999847 83.741028
v -42.789658 245.033569 43.202934
v -55.859634 278.951569 39.618904
v 49.452736 245.998947 83.741028
v 85.963295 245.033569 43.202934
v 99.033272 278.957581 39.618904
v 88.294586 245.067673 17.244324
v 98.695389 275.627014 13.159973
v -45.120956 245.067673 17.244331
v -55.521744 275.627014 13.159981
v -28.613373 321.123993 80.180359
v -61.263985 311.263916 49.128662
v -71.395302 308.031433 53.408745
v -34.744419 318.390717 88.546967
v -10.647606 251.637451 93.329086
v -65.924240 275.167450 43.373581
v -52.183578 249.665115 47.819588
v 53.821259 251.636261 93.329086
v 95.357224 249.665115 47.819588
v 98.475693 249.131851 17.947937
v -66.127083 271.506470 13.619598
v -55.302048 249.131851 17.947945
v -73.859299 298.542419 48.940857
v -75.309441 308.083466 44.731644
v -76.391830 308.001587 14.403946
v -76.081062 306.732208 13.107460
v -65.085396 311.119965 40.423737
v -65.467743 311.109802 14.203812
v -16.527935 319.521942 91.673981
v -20.826477 317.016418 101.890472
v 108.628670 311.111145 15.075394
v 108.249374 311.132782 41.086334
v -76.322243 308.038361 11.771179
v -72.140938 309.485565 -35.525723
v -62.281364 283.229095 -34.995186
v 115.896317 304.065979 51.412827
v 96.820572 314.889893 70.424591
v 63.287117 315.697662 102.574066
v 59.607380 311.134064 105.854431
v 108.488533 311.137024 10.697914
v 119.418686 308.065063 10.897934
v 115.314575 309.485565 -35.525734
v 104.842911 311.724213 -35.726372
v 95.314644 286.193878 -35.454807
v 105.455017 283.229095 -34.995197
v -52.141006 286.193878 -35.454796
v -42.196228 264.205780 -31.370453
v -51.930939 267.130005 -30.666838
v -61.669258 311.724213 -35.726360
v 85.369858 264.205780 -31.370462
v 95.104576 267.130005 -30.666847
v -65.131226 309.842834 12.898117
v -63.718925 301.642334 44.726395
v 108.069183 305.147675 12.904518
v -12.743240 313.410278 95.032501
v -17.053787 310.902588 105.266083
v -65.383461 311.125977 11.570915
v 88.477264 317.897675 64.307442
v 58.986706 318.195984 92.353851
v 107.058990 301.065216 44.834541
v 55.295326 313.633270 95.617599
v 105.757774 307.283844 47.167938
v 106.014336 311.117706 44.588135
v 100.362183 341.949158 28.927719
v 44.335899 341.894257 83.047333
v 52.101063 310.726135 95.888367
v -8.927410 310.726135 95.888367
v -1.162249 341.894257 83.047333
v -57.188545 341.949158 28.927727
v -62.840683 311.117706 44.588142
v 35.573257 446.893005 -116.544838
v -4.941746 397.870209 -202.007690
v -17.887138 434.855621 -163.953400
v -29.659981 397.585663 -46.940044
v 90.199890 242.445786 -11.519066
v 148.645203 338.394104 -50.140965
v -133.148376 173.030304 -144.073380
v -99.874550 132.096985 -60.375011
v -109.029648 294.980560 -47.508110
v 16.003042 146.566711 -200.710831
v 42.089142 157.842697 -227.902832
v 101.047325 133.566833 -170.283005
v 65.577141 132.168335 -161.992920
v 48.127045 315.691711 -212.148682
v 134.152283 252.619019 -189.259674
v 122.430710 381.864014 -137.693985
v 148.440033 244.090500 -166.906738
v 142.403244 179.893799 -141.785706
v 159.092102 284.602448 -123.440475
v -65.622589 213.211533 -219.467651
v -121.911667 293.106873 -137.102005
v -101.992828 303.017273 -159.676239
v 165.863556 279.207977 -83.516174
v 138.903915 232.713898 -66.262840
v -7.298029 120.592041 -46.118042
v -53.794601 150.445541 -47.420082
v -86.281822 361.147552 -103.313759
v -117.355560 320.317719 -90.727493
v -49.327560 428.606873 -148.698532
v -52.162170 406.686157 -180.071671
v -68.423096 391.037994 -167.529663
v -86.864182 372.246063 -155.028519
v 80.610992 129.491623 -47.812531
v 138.944580 183.998444 -86.267822
v -24.283218 294.998047 -16.715187
v 52.296783 228.605103 -8.024292
v 69.729004 116.313400 -62.471306
v -29.736565 434.924591 -90.641960
v 82.935013 436.710266 -56.968254
v -64.399002 133.826294 -135.588120
v 17.469042 121.058708 -92.952881
v 43.592743 130.898361 -24.622261
v -67.410728 223.635025 -22.494064
v 77.039253 448.329437 -86.202606
v 9.784850 436.365112 -51.895668
v -27.160049 123.568710 -84.176682
v -79.341019 130.063644 -92.911087
v 59.187778 82.272919 -82.448967
v 34.094410 92.725296 -68.979782
v 6.948090 86.539368 -69.511597
v 71.085938 106.581741 -122.865219
v 77.744492 99.635246 -141.176819
v 52.170052 108.056976 -150.352707
v 7.608646 114.187439 -139.510284
v -48.278259 114.744095 -139.309402
v -36.238144 108.372437 -88.724174
v 7.755271 109.034248 -88.804688
v -72.747528 89.414871 -90.846199
v -63.763184 103.831131 -88.965065
v -63.967102 110.902191 -158.915207
v -72.841522 98.930855 -153.508698
v -32.728691 91.876343 -159.991592
v -29.658092 108.174133 -161.644638
v 30.999434 107.746063 -161.850250
v 35.723919 89.861191 -160.331726
v 40.788521 81.263565 -141.798431
v -45.275322 80.719574 -141.719147
v -29.386192 98.617920 -67.614594
v 31.271339 98.189857 -67.820198
v 77.130424 84.479462 -91.677719
v 70.662621 97.878761 -90.144791
v 75.752235 89.075302 -141.162582
v -33.155682 80.064301 -75.491386
v -28.885529 87.353104 -69.350555
v 19.542208 74.478058 -91.277367
v 44.972462 74.050156 -91.381104
v 43.820400 110.845589 -139.850830
v -45.232162 79.202576 -126.792557
v 229.360916 144.614822 -75.469246
v 212.533783 163.856873 -65.754379
v 195.098160 145.396881 -65.943069
v 231.927567 266.679718 -125.194618
v 235.216766 248.254486 -146.291412
v 220.651566 256.498840 -155.205811
v 193.689316 288.311005 -144.045395
v 160.117462 282.345612 -144.045395
v 167.290802 277.631744 -88.607208
v 193.689316 288.311035 -88.607208
v 141.100555 143.240250 -89.627167
v 150.882309 248.500839 -88.607201
v 150.882294 248.295868 -165.083221
v 141.100555 149.360077 -158.325043
v 172.408218 151.486649 -182.009155
v 171.565201 237.641571 -167.729492
v 207.998199 245.074402 -167.729492
v 213.563324 151.541199 -182.009155
v 162.811417 97.759895 -144.045364
v 197.156265 101.726112 -144.045364
v 216.952332 104.012207 -124.117722
v 216.952332 104.012207 -88.607178
v 201.671524 102.247559 -88.607178
v 162.811417 97.759895 -127.725578
v 171.565201 237.641586 -64.923103
v 207.998199 245.074417 -64.923103
v 252.839523 143.416107 -89.627167
v 231.927567 266.679749 -88.607201
v 215.843826 119.558456 -156.462936
v 252.839523 149.535934 -158.325043
v 145.962677 133.054977 -89.398743
v 169.816315 132.509140 -72.064194
v 172.408218 145.366821 -65.943069
v 214.885574 129.265167 -74.785698
v 228.931137 119.207596 -148.811783
v 215.520142 275.961334 -144.045395
v 202.731964 112.308945 -40.290749
v 226.777466 105.321480 -50.157700
v 220.736572 117.530754 -31.258127
v 232.977539 122.565025 -43.011234
v 221.030121 155.323364 -50.532223
v 206.035278 146.218857 -67.795685
v 207.691238 111.847656 -58.708656
v 227.760345 148.338562 -64.888695
v 203.381531 123.219582 -34.307438
v 204.678009 153.883224 -54.045132
v -127.049103 363.760498 -77.879601
v -179.289108 369.930664 -93.534897
v -144.236023 324.989410 -99.726135
v -159.722824 316.095398 -138.805725
v -169.437836 337.556641 -149.091324
v -169.653519 361.929688 -159.944122
v -146.239441 368.005310 -168.783646
v -114.081635 337.742462 -154.503937
v -105.687332 374.736969 -162.716003
v -140.340714 378.825836 -171.622345
v -123.764664 315.754059 -145.547012
v -91.131683 368.416870 -105.227020
v -118.562027 317.559387 -126.458115
v -132.271744 308.659027 -115.162308
v -177.817535 375.846893 -137.293091
v -146.440826 307.480896 -133.957565
v -160.827377 313.332489 -129.967972
v -157.900650 310.942322 -134.707489
v -168.025818 323.906555 -127.341599
v -170.196243 263.412048 -140.729126
v -187.840103 283.177094 -143.591599
v -170.285904 284.814209 -154.295624
v -184.671600 275.955780 -112.068092
v -192.052704 287.681519 -117.017616
v -192.450928 291.402771 -129.848969
v -180.700714 264.657593 -118.971466
v -164.020508 303.454437 -133.249557
v -186.946655 299.857452 -124.433327
v -187.105103 295.510864 -116.185616
v -162.810959 302.763214 -116.002357
v -176.016556 275.377075 -105.867470
v -139.638779 293.458649 -142.415710
v -138.985794 294.563660 -127.796661
v -132.025177 289.268829 -133.487350
v -129.571976 276.467834 -122.171951
v -129.457230 273.759369 -137.368134
v -143.645355 288.286530 -110.839867
v -152.852417 256.975494 -140.272278
v -131.806732 265.081818 -130.797104
v -152.490952 259.033142 -115.021767
v -149.999695 300.587219 -134.482376
v -145.789703 283.115082 -152.835617
v -165.953583 293.386658 -106.977417
v -166.232254 263.091644 -111.342773
v -189.640945 242.878204 -109.675110
v -194.547791 225.315247 -106.146980
v -166.808731 220.675232 -97.326408
v -158.952148 241.480408 -108.651978
v -156.897980 236.515472 -157.413559
v -148.491745 179.868805 -151.310135
v -187.118408 199.087570 -166.963760
v -161.920792 252.886520 -155.365402
v -189.815552 244.202744 -158.575668
v -173.326553 254.907547 -155.018005
v -177.253403 160.869995 -145.948166
v -202.982376 193.402863 -161.342026
v -167.350555 165.210800 -108.811684
v -173.188980 186.968735 -102.301224
v -200.773880 174.708160 -105.832855
v -201.716690 165.757095 -111.987228
v -184.332031 159.074463 -112.465454
v -207.782242 211.173203 -128.111542
v -207.507111 168.234283 -128.668411
v -154.132843 252.147995 -147.656113
v -198.587830 244.522812 -135.139175
v -148.612274 243.502487 -129.858795
v -151.427963 240.746750 -117.481201
v -145.134796 231.465485 -122.147064
v -140.562820 194.884659 -136.062134
v -141.019623 196.252762 -143.068146
v -145.892868 227.609299 -146.380188
v -144.863708 231.149521 -144.320084
v -143.463959 228.508240 -138.843369
v -141.881241 223.076645 -135.366959
v -137.881500 199.308807 -132.562149
v -138.406326 189.565765 -117.105537
v -170.534164 156.070618 -129.797073
v -143.932114 175.633102 -129.293808
v -150.047272 165.358643 -120.599693
v -158.431244 160.887466 -126.066406
v -191.860123 127.881630 -108.171013
v -192.669815 145.390427 -109.810959
v -199.380844 145.856934 -121.778908
v -200.499557 133.626801 -128.107895
v -200.459595 121.039246 -128.314484
v -189.477661 153.430115 -128.181030
v -195.936630 157.091751 -125.611305
v -192.854767 157.111725 -117.559410
v -188.397507 155.607376 -115.569832
v -185.895828 154.296951 -116.746925
v -185.398697 153.437408 -120.193207
v -186.048386 125.337341 -137.043091
v -190.131409 118.190620 -136.047363
v -195.931763 145.626953 -130.488007
v -189.572479 143.994247 -132.527542
v -174.551056 120.323807 -113.270256
v -180.416061 142.078247 -114.496338
v -182.701080 144.829086 -114.068771
v -194.227951 107.528099 -132.587784
v -190.984039 104.741653 -120.361298
v -190.385681 115.749847 -106.875885
v -182.846573 119.179604 -133.208466
v -180.674866 110.393738 -139.946793
v -172.414749 105.825485 -137.358566
v -174.371521 100.611160 -135.934158
v -188.321518 104.196571 -136.276230
v -183.038300 114.723091 -138.670334
v -169.596069 101.105858 -120.882523
v -167.245880 103.899315 -124.008667
v -165.838318 106.128525 -124.247772
v -170.068878 111.516243 -115.249992
v -178.692795 105.764854 -112.038399
v -182.368301 147.245346 -115.345337
v -183.922104 152.197037 -116.843163
v -191.231293 155.410873 -113.343170
v -197.146652 154.732147 -126.165962
v -169.488586 100.722916 -125.904190
v -182.658859 144.661835 -117.160507
v -152.278168 125.397018 -122.692917
v -145.532455 127.778030 -127.646751
v -140.710022 137.714951 -129.347046
v -144.645111 148.355591 -129.594025
v -154.872360 144.579010 -122.033585
v -156.635101 128.214035 -118.519684
v -152.354736 125.737511 -138.033707
v -149.149246 135.103668 -142.238174
v -164.361801 125.854301 -130.307251
v -159.124817 123.347900 -133.117599
v -150.698990 156.903732 -133.775894
v -155.980606 155.039490 -129.940643
v -158.682266 154.361206 -133.990860
v -153.301147 156.260559 -137.671997
v -150.980042 140.290543 -142.238174
v -163.331192 136.416824 -133.380066
v -88.753258 2.634201 -73.486107
v -34.104206 2.634201 -77.664948
v -73.703072 51.480728 -86.396927
v -52.115128 67.823853 -119.758972
v -37.279800 49.487244 -129.978577
v -31.054607 27.164673 -143.200760
v -50.923813 19.495361 -157.680588
v -89.634537 43.032257 -147.612488
v -90.306183 2.634186 -161.634079
v -54.358322 2.634186 -162.974243
v -85.534714 64.549896 -134.283569
v -117.133835 2.634201 -108.516800
v -94.192184 59.359467 -117.171608
v -84.643517 68.209442 -102.162643
v -25.640228 2.634201 -121.026260
v -67.283997 73.884628 -117.057350
v -53.288467 69.399841 -110.643082
v -55.517624 72.056610 -115.614418
v -45.224808 59.561829 -107.690735
v 85.874130 2.859055 -68.495110
v 126.668953 2.859055 -105.183777
v 93.329132 51.131851 -89.071594
v 91.330505 66.604645 -129.106110
v 95.349785 47.430298 -145.747910
v 90.429947 25.049759 -159.414734
v 65.322128 19.378723 -158.574585
v 42.788139 45.636749 -127.645485
v 30.838278 2.859039 -137.367966
v 58.515854 2.859039 -160.380035
v 55.854614 66.391693 -120.163696
v 41.725559 2.859055 -78.821121
v 59.038960 61.444412 -101.187500
v 76.420990 69.097885 -95.351593
v 106.950508 2.859039 -144.711639
v 81.491425 73.776489 -117.886330
v 96.084747 68.021515 -121.209930
v 91.508080 70.980667 -123.863083
v 103.463348 57.497391 -123.517471

# UV coordinates
vt 0.985979 0.105042
vt 0.965735 0.146885
vt 0.923485 0.137522
vt 0.924053 0.094843
vt 0.891863 0.127359
vt 0.885882 0.088403
vt 0.840949 0.142251
vt 0.829867 0.093025
vt 0.783074 0.156074
vt 0.778268 0.083940
vt 0.727606 0.149482
vt 0.730905 0.084519
vt 0.673596 0.140995
vt 0.680645 0.094325
vt 0.592779 0.571084
vt 0.536892 0.543934
vt 0.497160 0.525176
vt 0.524978 0.467914
vt 0.583694 0.447594
vt 0.639581 0.474744
vt 0.659901 0.533460
vt 0.632083 0.590722
vt 0.624058 0.132292
vt 0.625008 0.093065
vt 0.596833 0.150819
vt 0.582665 0.104518
vt 0.620193 0.065236
vt 0.575951 0.066759
vt 0.687106 0.069000
vt 0.739339 0.063383
vt 0.770483 0.062746
vt 0.822136 0.067311
vt 0.888589 0.061562
vt 0.988649 0.067312
vt 0.929812 0.063279
vt 0.989804 0.024521
vt 0.988489 0.054009
vt 0.931101 0.051577
vt 0.928670 0.026584
vt 0.889462 0.050797
vt 0.886253 0.029293
vt 0.837048 0.052649
vt 0.829377 0.026538
vt 0.774073 0.050877
vt 0.776559 0.021693
vt 0.735169 0.050527
vt 0.731305 0.023461
vt 0.671923 0.054907
vt 0.678829 0.029222
vt 0.619227 0.054272
vt 0.622860 0.033010
vt 0.574977 0.054436
vt 0.579831 0.027610
vt 0.622972 0.020453
vt 0.582266 0.013981
vt 0.676704 0.018720
vt 0.728960 0.013183
vt 0.778593 0.011814
vt 0.831265 0.015824
vt 0.886455 0.016306
vt 0.929179 0.012783
vt 0.986067 0.010482
vt 0.686364 0.066519
vt 0.619954 0.062298
vt 0.739296 0.060569
vt 0.770441 0.059869
vt 0.822802 0.064829
vt 0.888779 0.058701
vt 0.930169 0.060251
vt 0.575519 0.063610
vt 0.988791 0.064010
vt 0.648359 0.400144
vt 0.678191 0.357663
vt 0.691142 0.357416
vt 0.714964 0.388552
vt 0.714450 0.406093
vt 0.683264 0.423096
vt 0.719191 0.519203
vt 0.763515 0.507914
vt 0.775311 0.517606
vt 0.779942 0.539449
vt 0.769578 0.568205
vt 0.772607 0.595553
vt 0.768674 0.606480
vt 0.759723 0.613410
vt 0.719444 0.606611
vt 0.812965 0.686526
vt 0.838398 0.612510
vt 0.873771 0.623199
vt 0.879714 0.627828
vt 0.882198 0.640363
vt 0.870364 0.658743
vt 0.876902 0.683492
vt 0.862598 0.700936
vt 0.850919 0.701209
vt 0.799980 0.603629
vt 0.808652 0.535320
vt 0.854544 0.526828
vt 0.777100 0.669833
vt 0.741999 0.729251
vt 0.773172 0.764213
vt 0.720322 0.754047
vt 0.746602 0.785966
vt 0.806738 0.502522
vt 0.846952 0.493491
vt 0.772871 0.662112
vt 0.738854 0.712010
vt 0.725850 0.706520
vt 0.761282 0.654240
vt 0.690524 0.600523
vt 0.680499 0.695725
vt 0.659770 0.667343
vt 0.691042 0.525162
vt 0.660165 0.455714
vt 0.633069 0.430268
vt 0.654259 0.716245
vt 0.636959 0.692108
vt 0.711112 0.710299
vt 0.711984 0.727961
vt 0.687852 0.754216
vt 0.685358 0.755140
vt 0.721917 0.738373
vt 0.697899 0.764151
vt 0.675999 0.597341
vt 0.676954 0.528295
vt 0.626534 0.683858
vt 0.648062 0.660314
vt 0.782185 0.640897
vt 0.769914 0.634569
vt 0.647987 0.463621
vt 0.623075 0.440410
vt 0.701819 0.343664
vt 0.727678 0.376444
vt 0.684639 0.757424
vt 0.641343 0.799727
vt 0.614676 0.769402
vt 0.726112 0.409972
vt 0.748695 0.439058
vt 0.769928 0.493410
vt 0.768793 0.500377
vt 0.681383 0.330063
vt 0.673335 0.346173
vt 0.608275 0.323403
vt 0.611991 0.307002
vt 0.633906 0.876959
vt 0.635258 0.863093
vt 0.654949 0.841576
vt 0.684739 0.841811
vt 0.704087 0.863638
vt 0.705220 0.877523
vt 0.560057 0.748765
vt 0.581430 0.748757
vt 0.582659 0.757066
vt 0.560659 0.757037
vt 0.564270 0.761953
vt 0.583466 0.761879
vt 0.578420 0.768075
vt 0.563174 0.770173
vt 0.542936 0.760663
vt 0.541211 0.768883
vt 0.540900 0.747541
vt 0.545566 0.754028
vt 0.891728 0.488314
vt 0.893566 0.489767
vt 0.897328 0.522757
vt 0.885910 0.529563
vt 0.601426 0.746446
vt 0.590492 0.739566
vt 0.576544 0.388881
vt 0.586690 0.379948
vt 0.595419 0.354574
vt 0.711820 0.838968
vt 0.692813 0.814419
vt 0.774711 0.813557
vt 0.778126 0.820915
vt 0.736672 0.862986
vt 0.822109 0.438141
vt 0.852142 0.430493
vt 0.788821 0.517508
vt 0.793149 0.541257
vt 0.780316 0.615886
vt 0.782317 0.628627
vt 0.766790 0.626113
vt 0.785723 0.567717
vt 0.786920 0.591991
vt 0.727174 0.723098
vt 0.694239 0.767932
vt 0.649954 0.810618
vt 0.783008 0.505411
vt 0.762631 0.434822
vt 0.783247 0.486648
vt 0.733032 0.395065
vt 0.855634 0.706252
vt 0.857828 0.714434
vt 0.833530 0.759656
vt 0.807861 0.781476
vt 0.799294 0.780878
vt 0.783678 0.606963
vt 0.740810 0.403652
vt 0.783509 0.497104
vt 0.896642 0.538154
vt 0.898335 0.596363
vt 0.892851 0.616707
vt 0.884209 0.621695
vt 0.690879 0.338269
vt 0.805162 0.793284
vt 0.782074 0.816906
vt 0.696036 0.765968
vt 0.893191 0.486456
vt 0.886427 0.426801
vt 0.703435 0.905438
vt 0.635248 0.904899
vt 0.559732 0.281556
vt 0.586946 0.281737
vt 0.567097 0.341528
vt 0.539868 0.330736
vt 0.528517 0.374578
vt 0.555548 0.378680
vt 0.541511 0.440504
vt 0.518907 0.426488
vt 0.165007 0.630265
vt 0.269937 0.690902
vt 0.206921 0.713163
vt 0.011512 0.405782
vt 0.290515 0.329103
vt 0.234580 0.460442
vt 0.589228 0.148754
vt 0.511238 0.230832
vt 0.407337 0.112571
vt 0.490288 0.550605
vt 0.454567 0.544828
vt 0.437670 0.477962
vt 0.474737 0.475021
vt 0.339642 0.614121
vt 0.352891 0.523612
vt 0.244354 0.548897
vt 0.348471 0.503081
vt 0.383765 0.468824
vt 0.304321 0.490098
vt 0.472285 0.649902
vt 0.598712 0.693156
vt 0.453192 0.798127
vt 0.421063 0.769994
vt 0.290399 0.460626
vt 0.320308 0.420347
vt 0.472376 0.313161
vt 0.471992 0.255923
vt 0.357381 0.018543
vt 0.414924 0.056058
vt 0.250890 0.077401
vt 0.162161 0.739818
vt 0.190475 0.787273
vt 0.152386 0.806305
vt 0.330183 0.800703
vt 0.294742 0.785104
vt 0.417210 0.376011
vt 0.369063 0.426196
vt 0.335606 0.181595
vt 0.335909 0.296930
vt 0.436644 0.380907
vt 0.111041 0.685209
vt 0.121164 0.541836
vt 0.591209 0.592886
vt 0.500759 0.370587
vt 0.361596 0.863861
vt 0.479545 0.035813
vt 0.425520 0.341797
vt 0.265830 0.758165
vt 0.419854 0.201873
vt 0.150614 0.575529
vt 0.092480 0.629442
vt 0.031099 0.670986
vt 0.431941 0.867274
vt 0.116756 0.828083
vt 0.048275 0.795624
vt 0.523406 0.311312
vt 0.204505 0.829887
vt 0.199033 0.787217
vt 0.210836 0.738281
vt 0.250378 0.754789
vt 0.309015 0.833873
vt 0.267939 0.878890
vt 0.598712 0.261757
vt 0.544104 0.249542
vt 0.844793 0.846696
vt 0.862355 0.869136
vt 0.863091 0.892880
vt 0.875326 0.809956
vt 0.872309 0.784997
vt 0.911439 0.790476
vt 0.943658 0.848023
vt 0.968546 0.915475
vt 0.910659 0.917522
vt 0.894833 0.877309
vt 0.915158 0.962715
vt 0.916673 0.944000
vt 0.995117 0.932580
vt 0.989280 0.951786
vt 0.690543 0.959854
vt 0.695831 0.943113
vt 0.754219 0.953271
vt 0.756381 0.970621
vt 0.761360 0.992395
vt 0.672970 0.979184
vt 0.886818 0.919503
vt 0.647669 0.949684
vt 0.678707 0.916101
vt 0.659288 0.936489
vt 0.867224 0.870411
vt 0.852368 0.829850
vt 0.860805 0.834935
vt 0.802612 0.984330
vt 0.779193 0.954835
vt 0.807956 0.972707
vt 0.875479 0.937506
vt 0.876850 0.926298
vt 0.868896 0.933914
vt 0.838936 0.886444
vt 0.834706 0.861959
vt 0.738722 0.924860
vt 0.857771 0.783344
vt 0.776462 0.938902
vt 0.820211 0.843904
vt 0.815518 0.783821
vt 0.820314 0.958928
vt 0.805325 0.962506
vt 0.784918 0.876498
vt 0.915001 0.808907
vt 0.876328 0.994486
vt 0.977934 0.991672
vt 0.960331 0.993839
vt 0.767429 0.240179
vt 0.756604 0.256807
vt 0.739741 0.245867
vt 0.815356 0.299424
vt 0.823967 0.287712
vt 0.831958 0.293947
vt 0.835423 0.320339
vt 0.860346 0.345261
vt 0.788976 0.360091
vt 0.800549 0.326262
vt 0.973805 0.219051
vt 0.952476 0.351378
vt 0.880769 0.305595
vt 0.902216 0.234561
vt 0.872960 0.235199
vt 0.867451 0.293509
vt 0.843290 0.289522
vt 0.847562 0.237397
vt 0.645929 0.280333
vt 0.612509 0.246913
vt 0.612508 0.208386
vt 0.646835 0.174058
vt 0.661705 0.188928
vt 0.661705 0.264558
vt 0.754163 0.318617
vt 0.742300 0.353632
vt 0.890897 0.174078
vt 0.777468 0.304216
vt 0.784342 0.237073
vt 0.798206 0.302440
vt 0.837061 0.207637
vt 0.846784 0.176062
vt 0.823302 0.238781
vt 0.681064 0.243177
vt 0.714141 0.238163
vt 0.720741 0.250827
vt 0.678069 0.256836
vt 0.925463 0.389907
vt 0.741742 0.191889
vt 0.761547 0.195178
vt 0.755149 0.227729
vt 0.824421 0.211879
vt 0.828127 0.306037
vt 0.806367 0.181488
vt 0.671100 0.174309
vt 0.909407 0.166245
vt 0.972156 0.205601
vt 0.985789 0.666558
vt 0.995146 0.754167
vt 0.962417 0.705700
vt 0.952942 0.722842
vt 0.921067 0.711767
vt 0.950747 0.820377
vt 0.875844 0.740452
vt 0.945403 0.773230
vt 0.923304 0.728779
vt 0.955059 0.682995
vt 0.891859 0.693654
vt 0.886019 0.656346
vt 0.083281 0.905380
vt 0.120616 0.875115
vt 0.108080 0.931227
vt 0.143911 0.941294
vt 0.159604 0.927042
vt 0.177346 0.915569
vt 0.196759 0.927747
vt 0.182314 0.976009
vt 0.226570 0.962185
vt 0.209953 0.924649
vt 0.091089 0.985961
vt 0.062460 0.988537
vt 0.040047 0.922170
vt 0.091826 0.964718
vt 0.018992 0.985705
vt 0.111117 0.956264
vt 0.169541 0.888308
vt 0.010659 0.862799
vt 0.033336 0.829845
vt 0.089846 0.832011
vt 0.120390 0.980745
vt 0.136241 0.939503
vt 0.138896 0.943381
vt 0.135848 0.953371
vt 0.138184 0.928843
vt 0.154536 0.974108
vt 0.363124 0.965090
vt 0.360108 0.921050
vt 0.381129 0.925272
vt 0.330063 0.926492
vt 0.334429 0.915043
vt 0.345259 0.912072
vt 0.335257 0.937694
vt 0.296665 0.865155
vt 0.338861 0.891782
vt 0.328361 0.906997
vt 0.287615 0.898734
vt 0.321480 0.930118
vt 0.426920 0.913857
vt 0.446271 0.893437
vt 0.450042 0.916239
vt 0.275902 0.969917
vt 0.263131 0.993881
vt 0.245662 0.964137
vt 0.282780 0.940434
vt 0.249168 0.941669
vt 0.336650 0.992553
vt 0.286856 0.992501
vt 0.313050 0.961713
vt 0.386418 0.881319
vt 0.414748 0.887276
vt 0.410445 0.932415
vt 0.450349 0.950676
vt 0.302862 0.918973
vt 0.397851 0.981937
vt 0.320662 0.946532
vt 0.448909 0.974142
vt 0.242996 0.912859
vt 0.254359 0.885357
vt 0.571799 0.850828
vt 0.558127 0.858903
vt 0.548661 0.835991
vt 0.566964 0.829127
vt 0.604599 0.960237
vt 0.526183 0.964889
vt 0.554746 0.928180
vt 0.629496 0.948282
vt 0.601784 0.912617
vt 0.629240 0.926702
vt 0.513650 0.928297
vt 0.548630 0.913282
vt 0.485014 0.851172
vt 0.517328 0.848181
vt 0.519477 0.876517
vt 0.514788 0.885576
vt 0.482515 0.885326
vt 0.555594 0.883152
vt 0.523271 0.897559
vt 0.632932 0.968061
vt 0.603029 0.876614
vt 0.584913 0.809675
vt 0.572788 0.819295
vt 0.567330 0.806523
vt 0.230547 0.865435
vt 0.236159 0.866538
vt 0.241097 0.891569
vt 0.239417 0.894499
vt 0.234807 0.892592
vt 0.231565 0.888387
vt 0.227522 0.869410
vt 0.612894 0.806409
vt 0.627562 0.813318
vt 0.632932 0.829561
vt 0.512087 0.801441
vt 0.488026 0.926189
vt 0.497882 0.982791
vt 0.472902 0.969301
vt 0.476745 0.948604
vt 0.483083 0.791341
vt 0.469121 0.817232
vt 0.443682 0.859688
vt 0.453979 0.833603
vt 0.516400 0.772002
vt 0.525600 0.778079
vt 0.597173 0.986259
vt 0.591532 0.982714
vt 0.564689 0.784914
vt 0.575311 0.784442
vt 0.584772 0.781017
vt 0.541387 0.987096
vt 0.533393 0.995989
vt 0.910616 0.466167
vt 0.912847 0.445331
vt 0.928792 0.445190
vt 0.936423 0.459346
vt 0.936628 0.474297
vt 0.953046 0.435152
vt 0.959822 0.428594
vt 0.967113 0.435938
vt 0.966514 0.441863
vt 0.964069 0.444212
vt 0.959861 0.443485
vt 0.934334 0.589124
vt 0.927363 0.596254
vt 0.913795 0.587809
vt 0.918234 0.573584
vt 0.928258 0.561818
vt 0.935214 0.566041
vt 0.984700 0.470632
vt 0.968113 0.486528
vt 0.964541 0.460272
vt 0.965697 0.456286
vt 0.977598 0.451218
vt 0.938018 0.492914
vt 0.923522 0.493464
vt 0.908502 0.480609
vt 0.936764 0.597698
vt 0.933340 0.610357
vt 0.937752 0.620505
vt 0.932436 0.624244
vt 0.921592 0.612092
vt 0.932935 0.604612
vt 0.916250 0.605397
vt 0.967757 0.512080
vt 0.962090 0.511674
vt 0.959645 0.509715
vt 0.966380 0.498237
vt 0.978874 0.500751
vt 0.988772 0.484477
vt 0.972887 0.617899
vt 0.955756 0.615890
vt 0.949565 0.606191
vt 0.950615 0.600293
vt 0.957336 0.595440
vt 0.982750 0.596172
vt 0.981737 0.607978
vt 0.964055 0.453558
vt 0.962846 0.447406
vt 0.970612 0.440918
vt 0.939620 0.444193
vt 0.932939 0.434185
vt 0.929203 0.549839
vt 0.931243 0.547366
vt 0.937752 0.554008
vt 0.916137 0.432943
vt 0.921585 0.431030
vt 0.931839 0.431156
vt 0.963831 0.516487
vt 0.957141 0.527863
vt 0.951067 0.524802
vt 0.908119 0.500254
vt 0.939620 0.502218
vt 0.932637 0.518590
vt 0.918623 0.519026
vt 0.913029 0.516120
vt 0.979593 0.563261
vt 0.977239 0.566152
vt 0.957436 0.565195
vt 0.963105 0.554377
vt 0.973603 0.555367
vt 0.977771 0.557177
vt 0.962128 0.456286
vt 0.952343 0.587568
vt 0.980890 0.569709
vt 0.141006 0.832709
vt 0.148496 0.840078
vt 0.151487 0.848568
vt 0.153050 0.857446
vt 0.135337 0.859225
vt 0.132235 0.835867
vt 0.158473 0.836203
vt 0.160906 0.843941
vt 0.134689 0.824897
vt 0.154153 0.815621
vt 0.158204 0.824470
vt 0.161344 0.869560
vt 0.151528 0.874935
vt 0.178704 0.865490
vt 0.168589 0.868621
vt 0.163770 0.848007
vt 0.178704 0.834758
vt 0.184909 0.848418
vt 0.195564 0.835109
vt 0.211790 0.846934
vt 0.218925 0.860918
vt 0.215364 0.865578
vt 0.195023 0.856871
vt 0.162692 0.879959
vt 0.170222 0.878983
vt 0.167909 0.819790
vt 0.144916 0.013600
vt 0.218868 0.055953
vt 0.139220 0.081400
vt 0.114634 0.139053
vt 0.089943 0.167022
vt 0.050696 0.174847
vt 0.033282 0.143444
vt 0.066770 0.100305
vt 0.012540 0.084648
vt 0.008178 0.139049
vt 0.093303 0.104304
vt 0.076229 0.016624
vt 0.102076 0.088385
vt 0.118967 0.095637
vt 0.019072 0.210322
vt 0.055881 0.621885
vt 0.027589 0.621757
vt 0.006401 0.587850
vt 0.014478 0.554054
vt 0.057559 0.552567
vt 0.078709 0.581028
vt 0.114043 0.115725
vt 0.132258 0.131473
vt 0.121589 0.131018
vt 0.128956 0.137685
vt 0.129328 0.158733
vt 0.221877 0.162634
vt 0.181800 0.156254
vt 0.152732 0.130081
vt 0.245680 0.117569
vt 0.129639 0.343993
vt 0.056816 0.300242
vt 0.132715 0.276276
vt 0.156082 0.218493
vt 0.180527 0.190460
vt 0.219753 0.182955
vt 0.236725 0.214322
vt 0.203588 0.256346
vt 0.260409 0.272879
vt 0.261647 0.218394
vt 0.177595 0.252716
vt 0.198024 0.342316
vt 0.169209 0.268445
vt 0.152464 0.261681
vt 0.246926 0.148078
vt 0.055986 0.551928
vt 0.027677 0.551799
vt 0.006418 0.517872
vt 0.014522 0.484089
vt 0.057649 0.482610
vt 0.079027 0.511151
vt 0.156983 0.241703
vt 0.138591 0.226293
vt 0.149248 0.226586
vt 0.141819 0.220013
vt 0.141257 0.198997
vt 0.049006 0.195219
vt 0.089130 0.201875
vt 0.118231 0.228144
vt 0.029366 0.238753

# vertex normals
vn 0.000000 0.734162 -0.678974
vn 0.160024 0.674483 -0.720739
vn 0.679095 0.734041 -0.003632
vn 0.431458 0.724090 0.538087
vn 0.000000 0.693725 0.720240
vn -0.431458 0.724090 0.538087
vn -0.000000 1.000000 -0.000000
vn -0.679095 0.734041 -0.003632
vn -0.160023 0.674483 -0.720739
vn -0.391955 0.243578 -0.887153
vn -0.991268 0.123957 -0.044970
vn -0.626676 0.186069 0.756740
vn 0.000000 0.203466 0.979082
vn 0.626676 0.186068 0.756740
vn 0.991268 0.123958 -0.044970
vn 0.000000 0.342450 -0.939536
vn 0.000000 -0.174174 -0.984715
vn 0.440135 -0.066149 -0.895492
vn 0.986190 0.165511 -0.005890
vn 0.622595 0.434061 0.651127
vn 0.000000 0.380929 0.924604
vn -0.622595 0.434061 0.651127
vn -0.986190 0.165511 -0.005890
vn -0.440135 -0.066149 -0.895492
vn -0.312970 -0.597109 -0.738587
vn -0.834471 -0.550806 -0.016474
vn -0.640226 -0.452169 0.621011
vn 0.000000 -0.391592 0.920139
vn 0.640226 -0.452169 0.621010
vn 0.834471 -0.550805 -0.016474
vn 0.312970 -0.597109 -0.738587
vn 0.000000 -0.619130 -0.785289
vn 0.391955 0.243578 -0.887153
vn -0.920652 -0.388654 -0.036711
vn -0.274681 -0.929672 0.245480
vn 0.000000 -0.994608 0.103710
vn 0.274683 -0.929671 0.245480
vn 0.920652 -0.388655 -0.036712
vn 0.468736 -0.057843 -0.881442
vn -0.468736 -0.057843 -0.881442
vn -0.457728 0.122524 -0.880610
vn -0.995922 -0.055979 -0.070750
vn -0.530255 -0.564840 0.632286
vn 0.000000 -0.696735 0.717329
vn 0.530255 -0.564841 0.632286
vn 0.995922 -0.055980 -0.070749
vn 0.457728 0.122524 -0.880609
vn 0.000000 0.209645 -0.977778
vn 0.000000 0.000000 -1.000000
vn 0.961629 -0.272767 0.029460
vn 0.002578 -0.164474 0.986378
vn -0.002874 0.160751 -0.986991
vn 0.726134 0.220626 -0.651195
vn -0.000017 0.221242 -0.975219
vn -0.726139 0.220570 -0.651208
vn -0.940323 0.335499 -0.056859
vn 0.940314 0.335531 -0.056822
vn -0.315800 0.947936 0.041076
vn -0.706742 -0.300359 0.640547
vn 0.000022 -0.320993 0.947082
vn 0.706745 -0.300288 0.640577
vn 0.892744 -0.443240 0.080907
vn -0.892745 -0.443240 0.080907
vn -0.961925 -0.272758 0.017413
vn -0.277904 0.960592 0.005635
vn -0.000015 -0.862036 0.506847
vn -0.394885 -0.917540 0.046750
vn -0.097841 0.970856 0.218783
vn 0.394888 -0.917539 0.046749
vn -0.325866 -0.887479 0.325873
vn 0.278750 0.960348 0.005460
vn -0.944462 -0.305672 -0.120647
vn 0.692670 -0.203869 0.691842
vn 0.325868 -0.887484 0.325855
vn 0.240818 0.970570 0.000886
vn 0.000003 0.999930 -0.011847
vn 0.025677 -0.025092 -0.999355
vn -0.056168 -0.243787 -0.968201
vn -0.025677 -0.025091 -0.999355
vn 0.056168 -0.243786 -0.968201
vn 0.962076 0.272744 0.004567
vn -0.331756 -0.873912 -0.355268
vn 0.331755 -0.873913 -0.355268
vn 0.833726 -0.507717 -0.217080
vn -0.908745 0.379015 0.174728
vn -0.833727 -0.507717 -0.217080
vn -0.945412 0.304024 0.117325
vn 0.908745 0.379015 0.174727
vn 0.942639 -0.306174 -0.133004
vn 0.315840 0.938867 0.137016
vn 0.848060 0.305993 0.432624
vn 0.216520 0.933690 0.285206
vn -0.461917 0.468453 -0.753117
vn 0.237074 0.425897 0.873160
vn -0.241397 0.970426 0.000835
vn 0.888704 0.355321 -0.289745
vn 0.188451 0.965527 0.179564
vn -0.265377 0.360389 0.894256
vn -0.691576 0.202006 -0.693481
vn -0.496825 0.867850 -0.001046
vn -0.894884 0.331344 -0.298988
vn 0.389154 0.909236 -0.147817
vn 0.456658 0.398649 -0.795325
vn -0.544615 0.732612 0.408257
vn -0.839369 0.327534 0.433799
vn -0.518896 0.831164 0.199785
vn -0.695070 -0.201029 0.690265
vn 0.644971 0.633849 0.426905
vn 0.694180 0.199204 -0.691687
vn 0.078292 0.340005 0.937159
vn 0.111646 0.329877 -0.937398
vn -0.961964 0.273030 -0.008982
vn -0.181693 0.688056 0.702543
vn 0.947017 0.303526 0.105032
vn -0.205141 0.674884 -0.708836
vn 0.000000 0.930494 0.366306
vn 0.622595 0.434061 0.651127
vn -0.622595 0.434061 0.651127
vn 0.355987 0.727755 -0.586213
vn 0.119031 0.307509 0.944071
vn -0.939036 -0.079209 0.334571
vn -0.014430 -0.933432 -0.358464
vn 0.312304 0.082509 -0.946392
vn 0.478557 0.362481 -0.799744
vn 0.746730 -0.302098 -0.592563
vn 0.855812 0.256778 -0.449055
vn -0.768558 0.108527 -0.630508
vn 0.809485 -0.547797 -0.211312
vn 0.606549 -0.286856 -0.741493
vn -0.176218 -0.232743 0.956440
vn -0.710259 0.580282 0.398502
vn -0.772950 0.550758 -0.314982
vn -0.679155 0.195906 -0.707368
vn -0.378139 -0.632650 -0.675844
vn 0.694143 -0.272947 0.666082
vn 0.074752 0.258084 0.963226
vn -0.185054 0.272829 -0.944097
vn 0.712611 -0.694989 0.095786
vn -0.453531 -0.185300 -0.871765
vn -0.906205 0.325059 0.270423
vn 0.830183 0.556794 0.027880
vn 0.386937 0.708689 -0.589948
vn -0.354193 -0.720609 -0.596046
vn 0.002145 -0.987530 -0.157414
vn -0.976190 0.209570 0.055969
vn -0.988488 0.054929 0.140978
vn 0.712574 -0.695029 0.095778
vn 0.154894 -0.178851 0.971607
vn -0.026345 0.100275 -0.994611
vn 0.721270 -0.168959 0.671730
vn -0.445051 -0.230983 -0.865203
vn -0.334508 0.201956 0.920499
vn 0.289899 -0.808704 0.511817
vn 0.453468 0.391636 -0.800618
vn 0.497563 -0.303354 0.812654
vn 0.028497 -0.925978 0.376500
vn 0.052338 0.103951 0.993204
vn 0.020963 0.930531 0.365612
vn -0.211147 0.976826 -0.035047
vn -0.553854 0.632545 0.541417
vn -0.192437 0.980787 -0.032027
vn 0.395977 0.715914 -0.575039
vn -0.138820 0.984737 0.104986
vn -0.907149 0.319149 0.274271
vn 0.840808 0.539473 0.044846
vn -0.209066 0.664759 -0.717208
vn 0.068796 0.057301 0.995984
vn -0.117449 0.986537 0.113804
vn -0.396206 0.769067 -0.501555
vn -0.172531 -0.187741 0.966947
vn -0.481909 -0.183643 0.856761
vn 0.949546 -0.308755 0.055070
vn 0.935079 0.335873 -0.113214
vn 0.997623 -0.025462 0.064033
vn 0.994398 -0.059261 0.087522
vn -0.800507 0.514455 -0.307450
vn -0.645826 0.744963 0.167149
vn -0.685516 0.655336 -0.317178
vn -0.064756 -0.996923 -0.044177
vn -0.067542 -0.976668 -0.203858
vn -0.459171 -0.856353 -0.236265
vn -0.121127 -0.992532 -0.014415
vn 0.132896 -0.647699 0.750216
vn 0.372393 0.904530 -0.207722
vn -0.000727 0.993579 0.113137
vn -0.821448 0.565644 0.072595
vn -0.005962 -0.092671 -0.995679
vn -0.009669 -0.880249 -0.474413
vn -0.148894 0.878363 0.454212
vn -0.231985 -0.751205 -0.617960
vn 0.058286 0.969836 -0.236688
vn 0.480417 0.078470 0.873523
vn 0.173019 0.940582 0.292182
vn 0.201853 -0.866252 -0.457016
vn 0.423455 0.056315 -0.904165
vn -0.412998 -0.433049 0.801188
vn -0.477600 0.034122 0.877914
vn -0.246919 0.959984 0.132144
vn -0.144315 -0.181920 -0.972665
vn 0.043537 -0.824730 0.563848
vn 0.007174 0.961875 -0.273394
vn 0.961829 0.259634 0.086460
vn 0.088467 0.977919 -0.189338
vn 0.004869 -0.155678 0.987796
vn 0.291453 -0.888598 0.354187
vn -0.000802 0.897991 0.440014
vn 0.260705 -0.956944 -0.127634
vn -0.093835 -0.994831 0.038800
vn -0.001808 -0.991752 -0.128158
vn 0.209502 0.973478 -0.091925
vn 0.122094 0.980112 0.156443
vn -0.257266 -0.963289 0.076742
vn -0.496688 -0.859407 -0.121328
vn 0.254105 -0.249556 0.934426
vn 0.632508 0.629554 -0.451216
vn -0.266986 0.961943 0.058170
vn -0.995424 0.095478 0.003890
vn -0.015095 0.156425 -0.987575
vn 0.114720 -0.993398 0.000000
vn -0.620452 0.349481 0.702069
vn -0.527434 -0.425432 -0.735406
vn 0.143424 0.491743 -0.858847
vn 0.588707 0.063855 0.805821
vn 0.301448 0.532879 0.790676
vn 0.037533 -0.599680 -0.799360
vn 0.552162 0.179003 -0.814294
vn -0.572157 -0.255652 0.779281
vn -0.671221 0.022722 0.740909
vn -0.931875 0.357288 0.062887
vn -0.443496 0.057764 -0.894413
vn 0.023324 -0.461033 0.887076
vn -0.086633 0.452651 -0.887469
vn 0.985276 0.170754 0.008624
vn 0.410051 -0.551189 -0.726670
vn 0.301448 0.532879 -0.790676
vn 0.001071 -0.010611 0.999943
vn 0.458906 -0.397380 0.794667
vn -0.134692 0.467249 0.873806
vn 0.485119 -0.781533 -0.392257
vn 0.258118 -0.201338 0.944901
vn -0.433902 -0.738713 0.515783
vn 0.226888 -0.874735 -0.428205
vn 0.759003 -0.650206 -0.033870
vn 0.769840 0.457916 -0.444589
vn 0.492374 0.870384 -0.000000
vn -0.396322 -0.755570 0.521577
vn -0.914052 -0.404736 -0.026412
vn -0.024758 -0.843303 0.536868
vn 0.703677 -0.472818 0.530361
vn 0.557883 0.373610 0.741069
vn -0.960042 -0.113843 -0.255654
vn -0.300077 -0.952214 -0.056950
vn 0.230555 -0.284399 -0.930570
vn -0.997795 0.026588 -0.060809
vn 0.894709 0.380147 0.234486
vn -0.105699 0.494202 0.862897
vn 0.902184 -0.158053 -0.401351
vn -0.004747 0.886213 -0.463254
vn -0.294673 -0.445940 0.845166
vn -0.306579 -0.360485 0.880943
vn -0.108172 -0.469060 -0.876517
vn 0.186629 -0.273843 -0.943493
vn 0.889847 -0.425692 -0.164192
vn 0.926288 -0.268801 -0.264078
vn 0.548661 -0.533110 0.644022
vn -0.551451 0.490133 -0.675034
vn 0.047449 0.988963 0.140357
vn 0.364680 -0.924165 -0.113697
vn -0.360477 -0.825255 0.434754
vn -0.827109 -0.498669 -0.259268
vn -0.169925 -0.434740 -0.884379
vn -0.978069 -0.183943 -0.097700
vn -0.617708 -0.558121 0.554020
vn -0.421212 -0.486831 -0.765229
vn -0.837454 -0.530501 -0.131298
vn -0.185001 0.962618 0.197841
vn -0.502456 -0.572483 0.647920
vn 0.556920 0.825964 -0.087310
vn 0.985386 0.168821 -0.022648
vn 0.751746 0.517948 0.408177
vn 0.330123 -0.941190 0.071971
vn 0.068863 0.730552 -0.679376
vn 0.527776 -0.382840 0.758213
vn 0.755611 0.233751 -0.611893
vn -0.830817 0.498781 0.246901
vn -0.218086 0.713732 0.665601
vn -0.052144 -0.475122 -0.878373
vn 0.203233 -0.158893 0.966152
vn -0.415820 -0.625426 0.660255
vn -0.253025 -0.966648 0.039614
vn 0.518336 0.850694 -0.087453
vn -0.425707 0.199479 0.882600
vn -0.871150 0.463692 0.161513
vn -0.383502 0.723654 -0.573804
vn 0.972686 -0.227143 0.047830
vn 0.462099 -0.519798 -0.718523
vn 0.269295 0.619473 0.737382
vn 0.391255 0.886106 0.248466
vn -0.113427 0.391285 0.913253
vn 0.354547 -0.047999 -0.933806
vn 0.071736 0.184396 -0.980231
vn -0.123237 -0.502409 -0.855802
vn -0.038874 -0.371332 0.927686
vn -0.924124 0.045426 0.379382
vn 0.686384 0.293816 -0.665243
vn -0.502878 0.840969 -0.199711
vn -0.926816 0.231305 -0.295821
vn -0.376900 0.147485 -0.914437
vn -0.487944 -0.657535 -0.574072
vn 0.853475 0.432669 0.290479
vn 0.950822 0.078379 -0.299657
vn 0.090366 0.949334 0.300996
vn -0.314208 -0.080141 0.945966
vn 0.708109 0.168589 0.685682
vn -0.888835 0.315149 0.332648
vn -0.137010 0.023003 0.990303
vn -0.322728 -0.941509 -0.096986
vn 0.646994 -0.701554 -0.298700
vn 0.444384 -0.791276 -0.420007
vn 0.556246 -0.293861 0.777327
vn 0.249320 -0.901138 0.354667
vn -0.990058 -0.004521 -0.140589
vn 0.133315 -0.450903 -0.882561
vn 0.396189 -0.207019 0.894527
vn -0.010129 0.974918 0.222334
vn 0.946238 -0.267026 -0.182567
vn 0.761562 0.224109 -0.608111
vn 0.952222 0.302545 0.041704
vn 0.919834 0.382283 -0.088115
vn 0.974916 0.175613 0.136746
vn 0.936728 -0.276082 -0.215218
vn 0.715034 0.033186 -0.698302
vn -0.909192 -0.041271 0.414327
vn 0.400736 0.898247 -0.180454
vn -0.482022 0.076571 -0.872807
vn 0.355648 0.130623 0.925447
vn -0.906083 -0.284524 0.313146
vn 0.381221 -0.337699 -0.860598
vn -0.022467 -0.391760 -0.919793
vn -0.513130 -0.028873 -0.857825
vn 0.663961 -0.345420 0.663205
vn 0.361578 0.036887 0.931612
vn 0.695402 0.636942 -0.332747
vn 0.453794 0.317605 0.832585
vn -0.928056 0.051277 -0.368893
vn -0.175832 0.396819 -0.900899
vn -0.893177 0.268419 -0.360814
vn 0.177650 0.934467 0.308564
vn -0.847591 0.327450 0.417573
vn 0.797232 -0.600393 0.062847
vn 0.817946 -0.427171 -0.385342
vn -0.347871 -0.718665 0.602085
vn -0.225356 -0.968897 0.102245
vn 0.141250 0.764606 -0.628829
vn 0.895658 0.161453 -0.414402
vn 0.725553 0.684977 -0.066177
vn 0.991840 -0.125851 0.020350
vn 0.767160 0.640999 -0.024196
vn 0.885857 0.240583 -0.396709
vn 0.552619 0.061105 0.831191
vn 0.783605 -0.455219 -0.422776
vn -0.251243 -0.904585 0.344387
vn 0.326380 0.591747 0.737097
vn 0.318025 -0.947812 -0.022624
vn -0.600764 0.133169 -0.788256
vn -0.844885 0.224956 0.485350
vn -0.304251 0.951536 0.044837
vn -0.532774 -0.188051 -0.825100
vn 0.778055 0.274627 -0.564987
vn 0.074138 0.233421 0.969545
vn 0.211112 0.600611 -0.771167
vn -0.042966 0.322103 -0.945729
vn -0.892996 0.327095 -0.309140
vn -0.879794 0.168856 -0.444353
vn -0.736829 0.343790 0.582143
vn 0.754149 -0.216744 -0.619904
vn 0.000000 -1.000000 0.000000
vn -0.472938 0.876812 -0.086774
vn 0.130831 0.792978 0.595037
vn 0.774773 0.632167 -0.009567
vn 0.277738 0.575939 -0.768867
vn 0.947650 0.273548 0.164718
vn 0.425249 0.496101 0.756999
vn 0.653936 0.208949 0.727123
vn -0.255613 0.602588 -0.756009
vn -0.604406 0.331971 -0.724216
vn -0.870136 0.389758 0.301582
vn -0.957480 0.227003 0.178052
vn -0.214304 0.373924 0.902360
vn 0.210104 -0.261182 -0.942147
vn -0.000000 -1.000000 0.000000
vn -0.356294 0.913655 0.195677
vn 0.528820 0.763669 0.370349
vn 0.655649 0.568613 -0.496793
vn -0.203610 0.572645 -0.794116
vn 0.860158 0.217386 -0.461380
vn 0.821627 0.466276 0.327895

# Mesh
g Head
usemtl Head
f 4/4/1 1/1/1 2/2/1
f 2/2/1 3/3/1 4/4/1
f 6/6/2 4/4/2 3/3/2
f 3/3/2 5/5/2 6/6/2
f 8/8/3 6/6/3 5/5/3
f 5/5/3 7/7/3 8/8/3
f 10/10/4 8/8/4 7/7/4
f 7/7/4 9/9/4 10/10/4
f 12/12/5 10/10/5 9/9/5
f 9/9/5 11/11/5 12/12/5
f 14/14/6 12/12/6 11/11/6
f 11/11/6 13/13/6 14/14/6
f 2/16/7 15/17/7 13/18/7
f 2/16/7 13/18/7 11/19/7
f 2/16/7 11/19/7 9/20/7
f 2/16/7 9/20/7 7/21/7
f 7/21/7 5/22/7 3/15/7
f 3/15/7 2/16/7 7/21/7
f 16/24/8 14/14/8 13/13/8
f 13/13/8 15/23/8 16/24/8
f 1/26/9 16/24/9 15/23/9
f 15/23/9 2/25/9 1/26/9
f 18/28/10 17/27/10 16/24/10
f 16/24/10 1/26/10 18/28/10
f 17/27/11 19/29/11 14/14/11
f 14/14/11 16/24/11 17/27/11
f 19/29/12 20/30/12 12/12/12
f 12/12/12 14/14/12 19/29/12
f 20/30/13 21/31/13 10/10/13
f 10/10/13 12/12/13 20/30/13
f 21/31/14 22/32/14 8/8/14
f 8/8/14 10/10/14 21/31/14
f 22/32/15 23/33/15 6/6/15
f 6/6/15 8/8/15 22/32/15
f 24/35/16 18/34/16 1/1/16
f 1/1/16 4/4/16 24/35/16
f 28/39/17 25/36/17 26/37/17
f 26/37/17 27/38/17 28/39/17
f 30/41/18 28/39/18 27/38/18
f 27/38/18 29/40/18 30/41/18
f 32/43/19 30/41/19 29/40/19
f 29/40/19 31/42/19 32/43/19
f 34/45/20 32/43/20 31/42/20
f 31/42/20 33/44/20 34/45/20
f 36/47/21 34/45/21 33/44/21
f 33/44/21 35/46/21 36/47/21
f 38/49/22 36/47/22 35/46/22
f 35/46/22 37/48/22 38/49/22
f 40/51/23 38/49/23 37/48/23
f 37/48/23 39/50/23 40/51/23
f 25/53/24 40/51/24 39/50/24
f 39/50/24 26/52/24 25/53/24
f 42/55/25 41/54/25 40/51/25
f 40/51/25 25/53/25 42/55/25
f 41/54/26 43/56/26 38/49/26
f 38/49/26 40/51/26 41/54/26
f 43/56/27 44/57/27 36/47/27
f 36/47/27 38/49/27 43/56/27
f 44/57/28 45/58/28 34/45/28
f 34/45/28 36/47/28 44/57/28
f 45/58/29 46/59/29 32/43/29
f 32/43/29 34/45/29 45/58/29
f 46/59/30 47/60/30 30/41/30
f 30/41/30 32/43/30 46/59/30
f 47/60/31 48/61/31 28/39/31
f 28/39/31 30/41/31 47/60/31
f 48/61/32 42/62/32 25/36/32
f 25/36/32 28/39/32 48/61/32
f 23/33/33 24/35/33 4/4/33
f 4/4/33 6/6/33 23/33/33
f 39/50/34 37/48/34 49/63/34
f 49/63/34 50/64/34 39/50/34
f 37/48/35 35/46/35 51/65/35
f 51/65/35 49/63/35 37/48/35
f 35/46/36 33/44/36 52/66/36
f 52/66/36 51/65/36 35/46/36
f 33/44/37 31/42/37 53/67/37
f 53/67/37 52/66/37 33/44/37
f 31/42/38 29/40/38 54/68/38
f 54/68/38 53/67/38 31/42/38
f 29/40/39 27/38/39 55/69/39
f 55/69/39 54/68/39 29/40/39
f 26/52/40 39/50/40 50/64/40
f 50/64/40 56/70/40 26/52/40
f 50/64/41 17/27/41 18/28/41
f 18/28/41 56/70/41 50/64/41
f 49/63/42 19/29/42 17/27/42
f 17/27/42 50/64/42 49/63/42
f 51/65/43 20/30/43 19/29/43
f 19/29/43 49/63/43 51/65/43
f 52/66/44 21/31/44 20/30/44
f 20/30/44 51/65/44 52/66/44
f 53/67/45 22/32/45 21/31/45
f 21/31/45 52/66/45 53/67/45
f 54/68/46 23/33/46 22/32/46
f 22/32/46 53/67/46 54/68/46
f 55/69/47 24/35/47 23/33/47
f 23/33/47 54/68/47 55/69/47
f 56/71/48 18/34/48 24/35/48
f 24/35/48 55/69/48 56/71/48
f 27/38/49 26/37/49 56/71/49
f 56/71/49 55/69/49 27/38/49
f 62/77/50 57/72/50 58/73/50
f 62/77/50 58/73/50 59/74/50
f 62/77/50 59/74/50 60/75/50
f 60/75/50 61/76/50 62/77/50
f 71/86/51 63/78/51 64/79/51
f 71/86/51 64/79/51 65/80/51
f 71/86/51 65/80/51 66/81/51
f 71/86/51 66/81/51 67/82/51
f 71/86/51 67/82/51 68/83/51
f 71/86/51 68/83/51 69/84/51
f 69/84/51 70/85/51 71/86/51
f 80/95/52 72/87/52 73/88/52
f 80/95/52 73/88/52 74/89/52
f 80/95/52 74/89/52 75/90/52
f 75/90/52 76/91/52 77/92/52
f 77/92/52 78/93/52 79/94/52
f 77/92/52 79/94/52 80/95/52
f 75/90/52 77/92/52 80/95/52
f 73/88/53 81/96/53 82/97/53
f 82/97/53 83/98/53 73/88/53
f 72/87/54 84/99/54 81/96/54
f 81/96/54 73/88/54 72/87/54
f 86/101/55 85/100/55 84/99/55
f 84/99/55 72/87/55 86/101/55
f 88/103/56 87/102/56 85/100/56
f 85/100/56 86/101/56 88/103/56
f 83/98/57 82/97/57 89/104/57
f 89/104/57 90/105/57 83/98/57
f 94/109/58 91/106/58 92/107/58
f 92/107/58 93/108/58 94/109/58
f 97/112/59 95/110/59 71/86/59
f 71/86/59 96/111/59 97/112/59
f 95/110/60 98/113/60 63/78/60
f 63/78/60 71/86/60 95/110/60
f 98/113/61 99/114/61 62/77/61
f 62/77/61 63/78/61 98/113/61
f 99/114/62 100/115/62 57/72/62
f 57/72/62 62/77/62 99/114/62
f 102/117/63 97/112/63 96/111/63
f 96/111/63 101/116/63 102/117/63
f 101/116/64 96/111/64 103/118/64
f 101/116/64 103/118/64 104/119/64
f 101/116/64 104/119/64 105/120/64
f 105/120/64 106/121/64 101/116/64
f 104/119/65 107/122/65 108/123/65
f 108/123/65 105/120/65 104/119/65
f 95/110/66 81/124/66 84/125/66
f 84/125/66 98/113/66 95/110/66
f 102/117/67 89/126/67 82/127/67
f 82/127/67 97/112/67 102/117/67
f 110/129/68 109/128/68 91/106/68
f 91/106/68 94/109/68 110/129/68
f 99/114/69 85/130/69 87/131/69
f 87/131/69 100/115/69 99/114/69
f 97/112/70 82/127/70 81/124/70
f 81/124/70 95/110/70 97/112/70
f 59/74/71 111/132/71 112/133/71
f 112/133/71 60/75/71 59/74/71
f 115/136/72 101/116/72 106/121/72
f 115/136/72 106/121/72 113/134/72
f 113/134/72 114/135/72 115/136/72
f 63/78/73 62/77/73 61/76/73
f 63/78/73 61/76/73 116/137/73
f 63/78/73 116/137/73 117/138/73
f 63/78/73 117/138/73 118/139/73
f 63/78/73 118/139/73 119/140/73
f 119/140/73 64/79/73 63/78/73
f 98/113/74 84/125/74 85/130/74
f 85/130/74 99/114/74 98/113/74
f 123/144/75 120/141/75 121/142/75
f 121/142/75 122/143/75 123/144/75
f 87/150/76 89/145/76 82/146/76
f 87/150/76 82/146/76 81/147/76
f 87/150/76 81/147/76 84/148/76
f 84/148/76 85/149/76 87/150/76
f 125/154/77 124/151/77 123/152/77
f 123/152/77 122/153/77 125/154/77
f 115/158/78 126/155/78 127/156/78
f 127/156/78 128/157/78 115/158/78
f 114/160/79 129/159/79 126/155/79
f 126/155/79 115/158/79 114/160/79
f 131/162/80 130/161/80 124/151/80
f 124/151/80 125/154/80 131/162/80
f 133/166/81 83/98/81 90/105/81
f 133/166/81 90/105/81 132/163/81
f 133/166/81 132/163/81 108/164/81
f 108/164/81 107/165/81 133/166/81
f 127/168/82 89/126/82 102/117/82
f 102/117/82 128/167/82 127/168/82
f 131/170/83 100/115/83 87/131/83
f 87/131/83 130/169/83 131/170/83
f 125/171/84 57/72/84 100/115/84
f 100/115/84 131/170/84 125/171/84
f 130/173/85 87/102/85 88/103/85
f 88/103/85 124/172/85 130/173/85
f 128/167/86 102/117/86 101/116/86
f 101/116/86 115/136/86 128/167/86
f 124/172/87 88/103/87 134/174/87
f 124/172/87 134/174/87 120/175/87
f 120/175/87 123/176/87 124/172/87
f 126/178/88 90/105/88 89/104/88
f 89/104/88 127/177/88 126/178/88
f 122/143/89 121/142/89 58/73/89
f 122/143/89 58/73/89 57/72/89
f 57/72/89 125/171/89 122/143/89
f 65/80/90 79/179/90 78/180/90
f 78/180/90 66/81/90 65/80/90
f 70/85/91 74/181/91 135/182/91
f 135/182/91 136/183/91 70/85/91
f 67/82/92 77/184/92 76/185/92
f 76/185/92 68/83/92 67/82/92
f 93/108/93 92/107/93 133/186/93
f 133/186/93 103/118/93 93/108/93
f 103/118/94 133/186/94 107/122/94
f 107/122/94 104/119/94 103/118/94
f 114/135/95 113/134/95 137/187/95
f 137/187/95 129/188/95 114/135/95
f 64/79/96 80/189/96 79/179/96
f 79/179/96 65/80/96 64/79/96
f 117/138/97 138/190/97 139/191/97
f 139/191/97 118/139/97 117/138/97
f 112/133/98 140/192/98 61/76/98
f 61/76/98 60/75/98 112/133/98
f 140/197/99 86/101/99 72/87/99
f 140/197/99 72/87/99 80/95/99
f 140/197/99 80/95/99 141/193/99
f 140/197/99 141/193/99 139/194/99
f 140/197/99 139/194/99 138/195/99
f 138/195/99 142/196/99 140/197/99
f 69/84/100 68/83/100 76/185/100
f 76/185/100 75/198/100 69/84/100
f 69/84/101 75/198/101 74/181/101
f 74/181/101 70/85/101 69/84/101
f 142/199/102 138/190/102 117/138/102
f 117/138/102 116/137/102 142/199/102
f 116/137/103 61/76/103 140/192/103
f 140/192/103 142/199/103 116/137/103
f 119/140/104 118/139/104 139/191/104
f 139/191/104 141/200/104 119/140/104
f 119/140/105 141/200/105 80/189/105
f 80/189/105 64/79/105 119/140/105
f 66/81/106 78/180/106 77/184/106
f 77/184/106 67/82/106 66/81/106
f 96/111/107 71/86/107 70/85/107
f 96/111/107 70/85/107 136/183/107
f 96/111/107 136/183/107 110/129/107
f 96/111/107 110/129/107 94/109/107
f 96/111/107 94/109/107 93/108/107
f 93/108/107 103/118/107 96/111/107
f 135/182/108 109/128/108 110/129/108
f 110/129/108 136/183/108 135/182/108
f 74/89/109 73/88/109 83/98/109
f 74/89/109 83/98/109 133/166/109
f 74/89/109 133/166/109 92/201/109
f 74/89/109 92/201/109 91/202/109
f 74/89/109 91/202/109 109/203/109
f 109/203/109 135/204/109 74/89/109
f 121/142/110 120/141/110 134/205/110
f 134/205/110 58/73/110 121/142/110
f 58/73/111 134/205/111 111/132/111
f 111/132/111 59/74/111 58/73/111
f 134/174/112 88/103/112 86/101/112
f 134/174/112 86/101/112 140/197/112
f 134/174/112 140/197/112 112/206/112
f 112/206/112 111/207/112 134/174/112
f 106/121/113 132/208/113 137/187/113
f 137/187/113 113/134/113 106/121/113
f 129/210/114 137/209/114 132/163/114
f 129/210/114 132/163/114 90/105/114
f 90/105/114 126/178/114 129/210/114
f 105/120/115 108/123/115 132/208/115
f 132/208/115 106/121/115 105/120/115
f 89/145/116 87/150/116 130/211/116
f 130/211/116 127/212/116 89/145/116

# Mesh
g Eyes
usemtl Eyes
f 146/216/117 143/213/117 144/214/117
f 144/214/117 145/215/117 146/216/117
f 150/220/118 147/217/118 148/218/118
f 148/218/118 149/219/118 150/220/118

# Mesh
g Body
usemtl Body
f 151/221/119 152/222/119 153/223/119
f 154/224/120 155/225/120 156/226/120
f 157/227/121 158/228/121 159/229/121
f 163/233/122 160/230/122 161/231/122
f 161/231/122 162/232/122 163/233/122
f 161/231/123 164/234/123 165/235/123
f 165/235/124 164/234/124 166/236/124
f 162/232/125 165/235/125 167/237/125
f 167/237/125 168/238/125 162/232/125
f 165/235/126 166/236/126 169/239/126
f 169/239/126 167/237/126 165/235/126
f 172/243/127 170/240/127 157/241/127
f 157/241/127 171/242/127 172/243/127
f 169/239/128 173/244/128 174/245/128
f 161/231/129 165/235/129 162/232/129
f 158/228/130 175/246/130 176/247/130
f 154/250/131 177/248/131 178/249/131
f 178/249/131 159/229/131 154/250/131
f 179/251/132 180/252/132 181/253/132
f 181/255/133 170/240/133 172/243/133
f 172/243/133 182/254/133 181/255/133
f 161/231/134 157/241/134 170/240/134
f 174/245/135 155/225/135 183/256/135
f 183/256/135 184/257/135 174/245/135
f 154/250/136 185/258/136 186/259/136
f 186/259/136 155/225/136 154/250/136
f 164/234/137 170/240/137 181/255/137
f 162/232/138 183/256/138 187/260/138
f 181/255/139 152/222/139 164/234/139
f 181/253/140 188/261/140 179/251/140
f 166/236/141 189/262/141 156/226/141
f 152/222/142 151/221/142 166/236/142
f 160/230/143 190/263/143 157/241/143
f 157/241/143 161/231/143 160/230/143
f 191/264/144 163/233/144 162/232/144
f 162/232/144 187/260/144 191/264/144
f 177/265/145 182/254/145 172/243/145
f 159/229/146 178/249/146 171/266/146
f 171/266/146 157/227/146 159/229/146
f 183/256/147 162/232/147 168/238/147
f 168/238/147 184/257/147 183/256/147
f 155/225/148 186/259/148 192/267/148
f 164/234/149 161/231/149 170/240/149
f 156/226/150 155/225/150 174/245/150
f 174/245/150 173/244/150 156/226/150
f 181/255/151 180/268/151 152/222/151
f 159/229/152 193/269/152 185/258/152
f 185/258/152 154/250/152 159/229/152
f 192/267/153 187/260/153 183/256/153
f 166/236/154 164/234/154 152/222/154
f 155/225/155 192/267/155 183/256/155
f 192/267/156 175/246/156 187/260/156
f 189/262/157 154/224/157 156/226/157
f 194/270/158 195/271/158 189/262/158
f 153/223/159 179/251/159 188/261/159
f 195/271/160 188/261/160 154/272/160
f 188/261/161 151/221/161 153/223/161
f 166/236/162 151/221/162 194/270/162
f 195/271/163 151/221/163 188/261/163
f 181/253/164 154/272/164 188/261/164
f 166/236/165 194/270/165 189/262/165
f 153/223/166 152/222/166 180/268/166
f 189/262/167 195/271/167 154/272/167
f 195/271/168 194/270/168 151/221/168
f 153/223/169 180/252/169 179/251/169
f 193/269/170 176/247/170 175/246/170
f 193/269/170 175/246/170 192/267/170
f 193/269/170 192/267/170 186/259/170
f 186/259/170 185/258/170 193/269/170
f 193/269/171 159/229/171 158/228/171
f 158/228/171 176/247/171 193/269/171
f 167/237/172 169/239/172 174/245/172
f 169/239/173 166/236/173 156/226/173
f 156/226/173 173/244/173 169/239/173
f 174/245/174 184/257/174 168/238/174
f 168/238/175 167/237/175 174/245/175
f 172/243/176 178/273/176 177/265/176
f 181/253/177 182/274/177 177/275/177
f 177/275/177 154/272/177 181/253/177
f 172/243/178 171/242/178 178/273/178
f 187/260/179 175/246/179 196/276/179
f 196/276/179 191/264/179 187/260/179
f 163/282/180 191/277/180 196/278/180
f 163/282/180 196/278/180 197/279/180
f 163/282/180 197/279/180 190/280/180
f 190/280/180 160/281/180 163/282/180
f 158/228/181 157/227/181 190/283/181
f 190/283/181 197/284/181 158/228/181
f 175/246/182 158/228/182 197/284/182
f 197/284/182 196/276/182 175/246/182
f 198/285/183 199/286/183 200/287/183
f 201/288/184 202/289/184 203/290/184
f 207/294/185 204/291/185 205/292/185
f 205/292/185 206/293/185 207/294/185
f 211/298/186 208/295/186 209/296/186
f 209/296/186 210/297/186 211/298/186
f 215/302/187 212/299/187 213/300/187
f 213/300/187 214/301/187 215/302/187
f 215/302/188 216/303/188 217/304/188
f 217/304/188 212/299/188 215/302/188
f 218/305/189 206/293/189 209/296/189
f 217/304/190 211/306/190 212/299/190
f 205/307/191 213/300/191 210/308/191
f 221/311/192 219/309/192 199/286/192
f 221/311/192 199/286/192 198/285/192
f 198/285/192 220/310/192 221/311/192
f 207/294/193 219/309/193 221/311/193
f 222/312/194 216/303/194 215/302/194
f 214/301/195 203/313/195 202/314/195
f 214/301/195 202/314/195 222/312/195
f 222/312/195 215/302/195 214/301/195
f 208/295/196 223/315/196 224/316/196
f 208/295/197 224/316/197 218/305/197
f 218/305/197 209/296/197 208/295/197
f 209/296/198 206/293/198 205/292/198
f 205/292/198 210/297/198 209/296/198
f 210/308/199 213/300/199 212/299/199
f 212/299/199 211/306/199 210/308/199
f 224/316/200 223/317/200 225/318/200
f 224/316/200 225/318/200 226/319/200
f 224/316/200 226/319/200 198/285/200
f 198/285/200 200/287/200 224/316/200
f 213/300/201 205/307/201 204/320/201
f 204/320/201 214/301/201 213/300/201
f 220/310/202 222/321/202 202/289/202
f 220/310/202 202/289/202 201/288/202
f 201/288/202 221/311/202 220/310/202
f 214/301/203 204/320/203 227/322/203
f 227/322/203 203/313/203 214/301/203
f 224/316/204 200/287/204 199/286/204
f 224/316/204 199/286/204 219/309/204
f 219/309/204 218/305/204 224/316/204
f 226/323/205 220/310/205 198/285/205
f 219/309/206 207/294/206 206/293/206
f 206/293/206 218/305/206 219/309/206
f 226/323/207 216/324/207 222/321/207
f 222/321/207 220/310/207 226/323/207
f 228/325/208 225/318/208 223/317/208
f 228/325/209 217/326/209 216/327/209
f 228/325/209 216/327/209 226/319/209
f 226/319/209 225/318/209 228/325/209
f 201/288/210 203/290/210 227/328/210
f 227/328/211 204/291/211 207/294/211
f 227/328/211 207/294/211 221/311/211
f 221/311/211 201/288/211 227/328/211
f 228/329/212 223/315/212 208/295/212
f 211/298/213 217/330/213 228/331/213
f 228/331/213 208/295/213 211/298/213

# Mesh
g LeftHand
usemtl Hands
f 229/332/214 230/333/214 231/334/214
f 232/335/215 233/336/215 234/337/215
f 238/341/216 235/338/216 236/339/216
f 236/339/216 237/340/216 238/341/216
f 242/345/217 239/342/217 240/343/217
f 240/343/217 241/344/217 242/345/217
f 246/349/218 243/346/218 244/347/218
f 244/347/218 245/348/218 246/349/218
f 252/355/219 247/350/219 248/351/219
f 252/355/219 248/351/219 249/352/219
f 252/355/219 249/352/219 250/353/219
f 250/353/219 251/354/219 252/355/219
f 253/356/220 237/340/220 240/357/220
f 247/358/221 242/345/221 243/346/221
f 236/339/222 244/347/222 241/344/222
f 256/361/223 254/359/223 230/333/223
f 256/361/223 230/333/223 229/332/223
f 229/332/223 255/360/223 256/361/223
f 238/341/224 254/359/224 256/361/224
f 246/349/225 257/362/225 248/363/225
f 246/349/225 248/363/225 247/358/225
f 247/358/225 243/346/225 246/349/225
f 245/348/226 234/337/226 233/336/226
f 245/348/226 233/336/226 258/364/226
f 258/364/226 246/349/226 245/348/226
f 239/368/227 259/365/227 260/366/227
f 260/366/227 261/367/227 239/368/227
f 239/368/228 261/367/228 253/356/228
f 253/356/228 240/357/228 239/368/228
f 240/343/229 237/369/229 236/339/229
f 236/339/229 241/344/229 240/343/229
f 241/344/230 244/347/230 243/346/230
f 243/346/230 242/345/230 241/344/230
f 261/367/231 260/366/231 251/370/231
f 261/367/231 251/370/231 250/371/231
f 261/367/231 250/371/231 262/372/231
f 262/372/231 231/334/231 261/367/231
f 244/347/232 236/339/232 235/338/232
f 235/338/232 245/348/232 244/347/232
f 255/360/233 258/364/233 233/336/233
f 255/360/233 233/336/233 232/335/233
f 232/335/233 256/361/233 255/360/233
f 258/364/234 263/373/234 257/362/234
f 257/362/234 246/349/234 258/364/234
f 245/348/235 235/338/235 264/374/235
f 264/374/235 234/337/235 245/348/235
f 261/367/236 231/334/236 230/333/236
f 261/367/236 230/333/236 254/359/236
f 254/359/236 253/356/236 261/367/236
f 262/372/237 250/371/237 255/360/237
f 255/360/237 229/332/237 262/372/237
f 254/359/238 238/341/238 237/340/238
f 237/340/238 253/356/238 254/359/238
f 249/375/239 248/363/239 257/362/239
f 229/332/240 231/334/240 262/372/240
f 252/376/241 251/370/241 260/366/241
f 249/375/242 257/362/242 263/373/242
f 255/360/243 250/371/243 249/375/243
f 255/360/243 249/375/243 263/373/243
f 263/373/243 258/364/243 255/360/243
f 232/335/244 234/337/244 264/374/244
f 264/374/245 235/338/245 238/341/245
f 264/374/245 238/341/245 256/361/245
f 256/361/245 232/335/245 264/374/245
f 252/376/246 260/366/246 259/365/246
f 242/345/247 247/358/247 252/377/247
f 242/345/247 252/377/247 259/378/247
f 259/378/247 239/342/247 242/345/247
f 265/379/248 266/380/248 267/381/248
f 267/381/249 266/380/249 268/382/249
f 267/381/250 268/382/250 269/383/250
f 265/384/251 270/385/251 271/386/251
f 266/380/252 265/384/252 271/386/252
f 272/387/253 266/380/253 271/386/253
f 271/386/253 270/385/253 272/387/253
f 270/390/254 265/379/254 273/388/254
f 273/388/254 274/389/254 270/390/254
f 272/387/255 269/383/255 268/382/255
f 267/381/256 269/383/256 274/389/256
f 274/389/256 273/388/256 267/381/256
f 272/387/257 268/382/257 266/380/257
f 272/387/258 270/385/258 274/389/258
f 274/389/258 269/383/258 272/387/258
f 273/388/259 265/379/259 267/381/259

# Mesh
g RightHand
usemtl Hands
f 275/391/260 276/392/260 277/393/260
f 282/398/261 278/394/261 279/395/261
f 282/398/261 279/395/261 280/396/261
f 280/396/261 281/397/261 282/398/261
f 284/400/262 283/399/262 282/398/262
f 282/398/262 281/397/262 284/400/262
f 287/404/263 285/401/263 282/402/263
f 282/402/263 286/403/263 287/404/263
f 286/403/264 282/402/264 283/405/264
f 275/391/265 277/393/265 288/406/265
f 275/391/265 288/406/265 287/404/265
f 287/404/265 286/403/265 275/391/265
f 289/407/266 284/400/266 281/397/266
f 281/397/266 280/396/266 289/407/266
f 286/403/267 283/408/267 284/409/267
f 286/403/267 284/409/267 289/410/267
f 286/403/267 289/410/267 276/392/267
f 276/392/267 275/391/267 286/403/267
f 287/404/268 288/406/268 290/411/268
f 290/411/268 285/401/268 287/404/268
f 288/406/269 277/393/269 291/412/269
f 288/406/269 291/412/269 292/413/269
f 292/413/269 290/414/269 288/406/269
f 278/394/270 292/413/270 291/412/270
f 278/394/270 291/412/270 293/415/270
f 293/415/270 279/395/270 278/394/270
f 278/394/271 282/398/271 285/416/271
f 278/394/271 285/416/271 290/414/271
f 290/414/271 292/413/271 278/394/271
f 289/407/272 280/396/272 279/395/272
f 289/407/272 279/395/272 293/415/272
f 293/415/272 276/392/272 289/407/272
f 277/393/273 276/392/273 293/415/273
f 293/415/273 291/412/273 277/393/273
f 294/417/274 295/418/274 296/419/274
f 300/423/275 297/420/275 298/421/275
f 300/423/275 298/421/275 299/422/275
f 300/423/275 299/422/275 295/418/275
f 295/418/275 294/417/275 300/423/275
f 304/427/276 301/424/276 302/425/276
f 302/425/276 303/426/276 304/427/276
f 300/423/277 305/428/277 297/420/277
f 306/429/278 307/430/278 308/431/278
f 309/432/279 310/433/279 308/434/279
f 307/436/280 311/435/280 309/432/280
f 309/432/280 308/434/280 307/436/280
f 312/437/281 313/438/281 314/439/281
f 296/419/282 301/440/282 315/441/282
f 296/419/282 315/441/282 306/429/282
f 306/429/282 316/442/282 296/419/282
f 311/435/283 314/439/283 313/438/283
f 313/438/283 309/432/283 311/435/283
f 306/429/284 308/431/284 310/443/284
f 310/443/284 316/442/284 306/429/284
f 302/425/285 298/421/285 303/426/285
f 317/444/286 304/427/286 303/426/286
f 294/417/287 296/419/287 316/442/287
f 316/442/287 312/445/287 294/417/287
f 305/428/288 318/446/288 314/439/288
f 305/428/288 314/439/288 311/435/288
f 311/435/288 317/444/288 305/428/288
f 300/423/289 318/446/289 305/428/289
f 300/423/290 294/417/290 312/437/290
f 300/423/290 312/437/290 314/439/290
f 314/439/290 318/446/290 300/423/290
f 306/429/291 315/441/291 307/430/291
f 317/444/292 303/426/292 298/421/292
f 317/444/292 298/421/292 297/420/292
f 297/420/292 305/428/292 317/444/292
f 302/425/293 299/422/293 298/421/293
f 301/440/294 296/419/294 295/418/294
f 301/440/294 295/418/294 299/422/294
f 299/422/294 302/425/294 301/440/294
f 309/432/295 313/438/295 310/433/295
f 312/445/296 316/442/296 310/443/296
f 310/443/296 313/447/296 312/445/296
f 317/444/297 311/435/297 304/427/297
f 304/427/298 311/435/298 307/436/298
f 304/427/298 307/436/298 315/448/298
f 315/448/298 301/449/298 304/427/298
f 322/453/299 319/450/299 320/451/299
f 320/451/299 321/452/299 322/453/299
f 323/454/300 324/455/300 325/456/300
f 328/459/301 326/457/301 323/454/301
f 328/459/301 323/454/301 325/456/301
f 325/456/301 327/458/301 328/459/301
f 325/456/302 329/460/302 330/461/302
f 335/466/303 331/462/303 332/463/303
f 335/466/303 332/463/303 333/464/303
f 333/464/303 334/465/303 335/466/303
f 337/468/304 334/465/304 333/464/304
f 337/468/304 333/464/304 320/451/304
f 320/451/304 336/467/304 337/468/304
f 326/457/305 338/469/305 323/454/305
f 327/458/306 339/470/306 328/459/306
f 336/467/307 339/470/307 327/458/307
f 327/458/307 330/461/307 336/467/307
f 330/461/308 327/458/308 325/456/308
f 330/461/309 329/460/309 337/468/309
f 340/471/310 341/472/310 342/473/310
f 349/480/311 343/474/311 344/475/311
f 349/480/311 344/475/311 345/476/311
f 349/480/311 345/476/311 346/477/311
f 349/480/311 346/477/311 347/478/311
f 347/478/311 348/479/311 349/480/311
f 328/483/312 341/472/312 340/471/312
f 328/483/312 340/471/312 338/481/312
f 338/481/312 326/482/312 328/483/312
f 332/463/313 321/452/313 320/451/313
f 321/452/314 350/484/314 342/473/314
f 321/452/314 342/473/314 341/472/314
f 341/472/314 322/453/314 321/452/314
f 319/450/315 339/470/315 336/467/315
f 336/467/315 320/451/315 319/450/315
f 320/451/316 333/464/316 332/463/316
f 337/468/317 329/460/317 351/485/317
f 337/468/317 351/485/317 335/466/317
f 335/466/317 334/465/317 337/468/317
f 354/488/318 324/455/318 352/486/318
f 352/486/318 353/487/318 354/488/318
f 329/460/319 324/455/319 354/488/319
f 354/488/319 351/485/319 329/460/319
f 353/490/320 352/489/320 350/484/320
f 353/490/320 350/484/320 332/463/320
f 332/463/320 331/462/320 353/490/320
f 335/466/321 351/491/321 354/492/321
f 335/466/321 354/492/321 353/490/321
f 353/490/321 331/462/321 335/466/321
f 337/468/322 336/467/322 330/461/322
f 329/460/323 325/456/323 324/455/323
f 321/452/324 332/463/324 350/484/324
f 341/472/325 328/483/325 339/470/325
f 341/472/325 339/470/325 319/450/325
f 319/450/325 322/453/325 341/472/325
f 352/489/326 343/493/326 349/494/326
f 349/494/326 350/484/326 352/489/326
f 338/469/327 346/495/327 345/496/327
f 345/496/327 323/454/327 338/469/327
f 342/473/328 348/497/328 347/498/328
f 347/498/328 340/471/328 342/473/328
f 340/471/329 347/498/329 346/499/329
f 346/499/329 338/481/329 340/471/329
f 350/484/330 349/494/330 348/497/330
f 348/497/330 342/473/330 350/484/330
f 324/455/331 344/500/331 343/501/331
f 343/501/331 352/486/331 324/455/331
f 323/454/332 345/496/332 344/500/332
f 344/500/332 324/455/332 323/454/332
f 359/506/333 355/502/333 356/503/333
f 359/506/333 356/503/333 357/504/333
f 357/504/333 358/505/333 359/506/333
f 365/512/334 360/507/334 361/508/334
f 365/512/334 361/508/334 362/509/334
f 365/512/334 362/509/334 363/510/334
f 363/510/334 364/511/334 365/512/334
f 369/518/335 366/513/335 367/514/335
f 369/518/335 367/514/335 359/515/335
f 369/518/335 359/515/335 358/516/335
f 358/516/335 368/517/335 369/518/335
f 356/523/336 355/519/336 370/520/336
f 356/523/336 370/520/336 371/521/336
f 371/521/336 372/522/336 356/523/336
f 359/506/337 373/524/337 374/525/337
f 359/506/337 374/525/337 375/526/337
f 375/526/337 355/502/337 359/506/337
f 367/514/338 366/513/338 376/527/338
f 380/531/339 377/528/339 378/529/339
f 378/529/339 379/530/339 380/531/339
f 373/533/340 359/515/340 367/514/340
f 373/533/340 367/514/340 381/532/340
f 373/533/340 381/532/340 377/528/340
f 377/528/340 380/531/340 373/533/340
f 386/538/341 382/534/341 383/535/341
f 386/538/341 383/535/341 384/536/341
f 384/536/341 385/537/341 386/538/341
f 375/539/342 386/538/342 385/537/342
f 375/539/342 385/537/342 370/520/342
f 370/520/342 355/519/342 375/539/342
f 385/546/343 384/540/343 378/541/343
f 385/546/343 378/541/343 377/542/343
f 385/546/343 377/542/343 381/543/343
f 385/546/343 381/543/343 376/544/343
f 376/544/343 370/545/343 385/546/343
f 389/549/344 356/523/344 372/522/344
f 389/549/344 372/522/344 387/547/344
f 389/549/344 387/547/344 388/548/344
f 389/549/344 388/548/344 364/511/344
f 364/511/344 363/510/344 389/549/344
f 368/550/345 357/504/345 390/551/345
f 360/554/346 369/518/346 368/517/346
f 360/554/346 368/517/346 390/552/346
f 390/552/346 361/553/346 360/554/346
f 368/550/347 358/505/347 357/504/347
f 363/510/348 362/509/348 389/549/348
f 357/504/349 356/503/349 389/555/349
f 357/504/349 389/555/349 362/556/349
f 357/504/349 362/556/349 361/557/349
f 361/557/349 390/551/349 357/504/349
f 391/558/350 383/535/350 382/534/350
f 391/558/351 379/559/351 378/560/351
f 391/558/351 378/560/351 384/536/351
f 384/536/351 383/535/351 391/558/351
f 374/525/352 386/561/352 375/526/352
f 374/525/353 373/524/353 380/562/353
f 374/525/353 380/562/353 379/563/353
f 374/525/353 379/563/353 391/564/353
f 374/525/353 391/564/353 382/565/353
f 382/565/353 386/561/353 374/525/353
f 367/514/354 376/527/354 381/532/354
f 388/571/355 387/566/355 392/567/355
f 388/571/355 392/567/355 369/568/355
f 388/571/355 369/568/355 360/569/355
f 360/569/355 365/570/355 388/571/355
f 388/548/356 365/512/356 364/511/356
f 392/572/357 387/547/357 372/522/357
f 392/572/358 372/522/358 371/521/358
f 371/574/359 370/545/359 376/544/359
f 371/574/359 376/544/359 366/573/359
f 371/574/359 366/573/359 369/568/359
f 369/568/359 392/567/359 371/574/359
f 398/580/360 393/575/360 394/576/360
f 398/580/360 394/576/360 395/577/360
f 398/580/360 395/577/360 396/578/360
f 396/578/360 397/579/360 398/580/360
f 395/577/361 394/576/361 399/581/361
f 399/581/361 400/582/361 395/577/361
f 402/585/362 393/575/362 398/583/362
f 398/583/362 401/584/362 402/585/362
f 397/579/363 396/578/363 403/586/363
f 403/586/363 404/587/363 397/579/363
f 399/581/364 394/576/364 393/575/364
f 393/575/364 402/585/364 399/581/364
f 408/591/365 405/588/365 406/589/365
f 406/589/365 407/590/365 408/591/365
f 408/597/366 401/592/366 398/593/366
f 408/597/366 398/593/366 397/594/366
f 408/597/366 397/594/366 404/595/366
f 404/595/366 405/596/366 408/597/366
f 405/599/367 404/598/367 403/586/367
f 403/586/367 406/589/367 405/599/367
f 402/585/368 401/600/368 408/591/368
f 402/585/368 408/591/368 407/590/368
f 402/585/368 407/590/368 400/582/368
f 400/582/368 399/581/368 402/585/368
f 395/577/369 400/582/369 407/590/369
f 395/577/369 407/590/369 406/589/369
f 395/577/369 406/589/369 403/586/369
f 403/586/369 396/578/369 395/577/369

# Mesh
g Legs
usemtl Legs
f 409/601/370 410/602/370 411/603/370
f 416/608/371 412/604/371 413/605/371
f 416/608/371 413/605/371 414/606/371
f 414/606/371 415/607/371 416/608/371
f 418/610/372 417/609/372 416/608/372
f 416/608/372 415/607/372 418/610/372
f 421/613/373 419/611/373 416/608/373
f 416/608/373 420/612/373 421/613/373
f 420/612/374 416/608/374 417/609/374
f 409/601/375 411/603/375 422/614/375
f 409/601/375 422/614/375 421/613/375
f 421/613/375 420/612/375 409/601/375
f 423/615/376 418/610/376 415/607/376
f 415/607/376 414/606/376 423/615/376
f 420/621/377 417/616/377 418/617/377
f 420/621/377 418/617/377 423/618/377
f 420/621/377 423/618/377 410/619/377
f 410/619/377 409/620/377 420/621/377
f 421/613/378 422/614/378 424/622/378
f 424/622/378 419/611/378 421/613/378
f 422/614/379 411/603/379 425/623/379
f 422/614/379 425/623/379 426/624/379
f 426/624/379 424/622/379 422/614/379
f 412/604/380 426/624/380 425/625/380
f 412/604/380 425/625/380 427/626/380
f 427/626/380 413/605/380 412/604/380
f 412/604/381 416/608/381 419/611/381
f 412/604/381 419/611/381 424/622/381
f 424/622/381 426/624/381 412/604/381
f 423/630/382 414/627/382 413/628/382
f 423/630/382 413/628/382 427/629/382
f 427/629/382 410/602/382 423/630/382
f 411/603/383 410/602/383 427/629/383
f 427/629/383 425/623/383 411/603/383
f 428/631/384 429/632/384 430/633/384
f 435/638/385 431/634/385 432/635/385
f 435/638/385 432/635/385 433/636/385
f 433/636/385 434/637/385 435/638/385
f 437/640/386 436/639/386 435/638/386
f 435/638/386 434/637/386 437/640/386
f 440/643/387 438/641/387 435/638/387
f 435/638/387 439/642/387 440/643/387
f 439/642/388 435/638/388 436/639/388
f 428/631/389 430/633/389 441/644/389
f 428/631/389 441/644/389 440/643/389
f 440/643/389 439/642/389 428/631/389
f 442/645/390 437/640/390 434/637/390
f 434/637/390 433/636/390 442/645/390
f 439/651/391 436/646/391 437/647/391
f 439/651/391 437/647/391 442/648/391
f 439/651/391 442/648/391 429/649/391
f 429/649/391 428/650/391 439/651/391
f 440/643/392 441/644/392 443/652/392
f 443/652/392 438/641/392 440/643/392
f 441/644/393 430/633/393 444/653/393
f 441/644/393 444/653/393 445/654/393
f 445/654/393 443/652/393 441/644/393
f 431/634/394 445/654/394 444/655/394
f 431/634/394 444/655/394 446/656/394
f 446/656/394 432/635/394 431/634/394
f 431/634/395 435/638/395 438/641/395
f 431/634/395 438/641/395 443/652/395
f 443/652/395 445/654/395 431/634/395
f 442/660/396 433/657/396 432/658/396
f 442/660/396 432/658/396 446/659/396
f 446/659/396 429/632/396 442/660/396
f 430/633/397 429/632/397 446/659/397
f 446/659/397 444/653/397 430/633/397
