{
  "accessors": [
    {
      "bufferView": 1,
      "componentType": 5126,
      "count": 65532,
      "max": [
        0.5945100784301758,
        0.3051617741584778,
        0.5490192174911499
      ],
      "min": [
        -0.9348255395889282,
        -0.2814023494720459,
        -0.9387365579605103
      ],
      "type": "VEC3"
    },
    {
      "bufferView": 1,
      "byteOffset": 786384,
      "componentType": 5126,
      "count": 65532,
      "max": [
        0.9985048770904541,
        0.9999990463256836,
        0.9999402165412903
      ],
      "min": [
        -0.9999590516090393,
        -0.9999575614929199,
        -0.9999846816062927
      ],
      "type": "VEC3"
    },
    {
      "bufferView": 0,
      "componentType": 5125,
      "count": 360852,
      "type": "SCALAR"
    },
    {
      "bufferView": 1,
      "byteOffset": 1572768,
      "componentType": 5126,
      "count": 65532,
      "max": [
        0.9518615007400513,
        0.29812777042388916,
        0.272123783826828
      ],
      "min": [
        -0.9409857988357544,
        -0.2301487922668457,
        -0.916266143321991
      ],
      "type": "VEC3"
    },
    {
      "bufferView": 1,
      "byteOffset": 2359152,
      "componentType": 5126,
      "count": 65532,
      "max": [
        0.9998737573623657,
        0.9999995231628418,
        0.9993951320648193
      ],
      "min": [
        -0.9999688267707825,
        -0.9999317526817322,
        -0.9999550580978394
      ],
      "type": "VEC3"
    },
    {
      "bufferView": 0,
      "byteOffset": 1443408,
      "componentType": 5125,
      "count": 364302,
      "type": "SCALAR"
    },
    {
      "bufferView": 1,
      "byteOffset": 3145536,
      "componentType": 5126,
      "count": 65532,
      "max": [
        0.9488530158996582,
        0.2909530699253082,
        0.8085055351257324
      ],
      "min": [
        -0.61767578125,
        -0.24742695689201355,
        -0.7529252767562866
      ],
      "type": "VEC3"
    },
    {
      "bufferView": 1,
      "byteOffset": 3931920,
      "componentType": 5126,
      "count": 65532,
      "max": [
        0.9999393224716187,
        0.9999997615814209,
        0.9999933838844299
      ],
      "min": [
        -0.9999200105667114,
        -0.9999966025352478,
        -0.9999474287033081
      ],
      "type": "VEC3"
    },
    {
      "bufferView": 0,
      "byteOffset": 2900616,
      "componentType": 5125,
      "count": 353484,
      "type": "SCALAR"
    },
    {
      "bufferView": 1,
      "byteOffset": 4718304,
      "componentType": 5126,
      "count": 65532,
      "max": [
        0.940194845199585,
        0.2743051052093506,
        0.7858723402023315
      ],
      "min": [
        -0.9519787430763245,
        -0.16035091876983643,
        -0.8140807151794434
      ],
      "type": "VEC3"
    },
    {
      "bufferView": 1,
      "byteOffset": 5504688,
      "componentType": 5126,
      "count": 65532,
      "max": [
        0.9999707937240601,
        0.9999984502792358,
        0.999977171421051
      ],
      "min": [
        -0.9999625086784363,
        -0.9999984502792358,
        -0.9996205568313599
      ],
      "type": "VEC3"
    },
    {
      "bufferView": 0,
      "byteOffset": 4314552,
      "componentType": 5125,
      "count": 351105,
      "type": "SCALAR"
    },
    {
      "bufferView": 1,
      "byteOffset": 6291072,
      "componentType": 5126,
      "count": 65532,
      "max": [
        0.8840526938438416,
        0.2855110466480255,
        0.8693345189094543
      ],
      "min": [
        -0.9346557855606079,
        -0.141668900847435,
        -0.7539914846420288
      ],
      "type": "VEC3"
    },
    {
      "bufferView": 1,
      "byteOffset": 7077456,
      "componentType": 5126,
      "count": 65532,
      "max": [
        0.9999293684959412,
        0.9999979734420776,
        0.9999910593032837
      ],
      "min": [
        -1.0,
        -0.9999998211860657,
        -0.9997833967208862
      ],
      "type": "VEC3"
    },
    {
      "bufferView": 0,
      "byteOffset": 5718972,
      "componentType": 5125,
      "count": 352425,
      "type": "SCALAR"
    },
    {
      "bufferView": 1,
      "byteOffset": 7863840,
      "componentType": 5126,
      "count": 65532,
      "max": [
        0.8989997506141663,
        0.29802706837654114,
        0.923033595085144
      ],
      "min": [
        -0.9009513854980469,
        -0.22097116708755493,
        -0.8934032917022705
      ],
      "type": "VEC3"
    },
    {
      "bufferView": 1,
      "byteOffset": 8650224,
      "componentType": 5126,
      "count": 65532,
      "max": [
        0.9999338984489441,
        0.9999998211860657,
        0.9999731183052063
      ],
      "min": [
        -0.9996284246444702,
        -0.999996542930603,
        -0.9992061257362366
      ],
      "type": "VEC3"
    },
    {
      "bufferView": 0,
      "byteOffset": 7128672,
      "componentType": 5125,
      "count": 351465,
      "type": "SCALAR"
    },
    {
      "bufferView": 1,
      "byteOffset": 9436608,
      "componentType": 5126,
      "count": 65532,
      "max": [
        0.9231157302856445,
        0.3014764189720154,
        0.9293628334999084
      ],
      "min": [
        -0.9457926750183105,
        -0.21194079518318176,
        -0.921247124671936
      ],
      "type": "VEC3"
    },
    {
      "bufferView": 1,
      "byteOffset": 10222992,
      "componentType": 5126,
      "count": 65532,
      "max": [
        1.0,
        0.9999992847442627,
        1.0
      ],
      "min": [
        -1.0,
        -1.0,
        -1.0
      ],
      "type": "VEC3"
    },
    {
      "bufferView": 0,
      "byteOffset": 8534532,
      "componentType": 5125,
      "count": 236322,
      "type": "SCALAR"
    },
    {
      "bufferView": 1,
      "byteOffset": 11009376,
      "componentType": 5126,
      "count": 33201,
      "max": [
        0.951315701007843,
        0.305044949054718,
        0.1767578125
      ],
      "min": [
        -0.9508076310157776,
        -0.28048282861709595,
        -0.936725914478302
      ],
      "type": "VEC3"
    },
    {
      "bufferView": 1,
      "byteOffset": 11407788,
      "componentType": 5126,
      "count": 33201,
      "max": [
        0.9999999403953552,
        1.0,
        1.0
      ],
      "min": [
        -1.0,
        -1.0,
        -1.0
      ],
      "type": "VEC3"
    },
    {
      "bufferView": 0,
      "byteOffset": 9479820,
      "componentType": 5125,
      "count": 84609,
      "type": "SCALAR"
    }
  ],
  "asset": {
    "extras": {
      "author": "gulsumerbeyza (https://sketchfab.com/gulsumerbeyza)",
      "license": "CC-BY-4.0 (http://creativecommons.org/licenses/by/4.0/)",
      "source": "https://sketchfab.com/3d-models/mystic-floating-stone-fecf61dd626644fea3468e9865242787",
      "title": "Mystic Floating Stone"
    },
    "generator": "Sketchfab-16.85.0",
    "version": "2.0"
  },
  "bufferViews": [
    {
      "buffer": 0,
      "byteLength": 9818256,
      "name": "floatBufferViews",
      "target": 34963
    },
    {
      "buffer": 0,
      "byteLength": 11806200,
      "byteOffset": 9818256,
      "byteStride": 12,
      "name": "floatBufferViews",
      "target": 34962
    }
  ],
  "buffers": [
    {
      "byteLength": 21624456,
      "uri": "scene.bin"
    }
  ],
  "materials": [
    {
      "doubleSided": true,
      "name": "Scene_-_Root",
      "pbrMetallicRoughness": {
        "metallicFactor": 0.0,
        "roughnessFactor": 0.6
      }
    }
  ],
  "meshes": [
    {
      "name": "Object_0",
      "primitives": [
        {
          "attributes": {
            "NORMAL": 1,
            "POSITION": 0
          },
          "indices": 2,
          "material": 0,
          "mode": 4
        }
      ]
    },
    {
      "name": "Object_1",
      "primitives": [
        {
          "attributes": {
            "NORMAL": 4,
            "POSITION": 3
          },
          "indices": 5,
          "material": 0,
          "mode": 4
        }
      ]
    },
    {
      "name": "Object_2",
      "primitives": [
        {
          "attributes": {
            "NORMAL": 7,
            "POSITION": 6
          },
          "indices": 8,
          "material": 0,
          "mode": 4
        }
      ]
    },
    {
      "name": "Object_3",
      "primitives": [
        {
          "attributes": {
            "NORMAL": 10,
            "POSITION": 9
          },
          "indices": 11,
          "material": 0,
          "mode": 4
        }
      ]
    },
    {
      "name": "Object_4",
      "primitives": [
        {
          "attributes": {
            "NORMAL": 13,
            "POSITION": 12
          },
          "indices": 14,
          "material": 0,
          "mode": 4
        }
      ]
    },
    {
      "name": "Object_5",
      "primitives": [
        {
          "attributes": {
            "NORMAL": 16,
            "POSITION": 15
          },
          "indices": 17,
          "material": 0,
          "mode": 4
        }
      ]
    },
    {
      "name": "Object_6",
      "primitives": [
        {
          "attributes": {
            "NORMAL": 19,
            "POSITION": 18
          },
          "indices": 20,
          "material": 0,
          "mode": 4
        }
      ]
    },
    {
      "name": "Object_7",
      "primitives": [
        {
          "attributes": {
            "NORMAL": 22,
            "POSITION": 21
          },
          "indices": 23,
          "material": 0,
          "mode": 4
        }
      ]
    }
  ],
  "nodes": [
    {
      "children": [
        1
      ],
      "matrix": [
        1.0,
        0.0,
        0.0,
        0.0,
        0.0,
        2.220446049250313e-16,
        -1.0,
        0.0,
        0.0,
        1.0,
        2.220446049250313e-16,
        0.0,
        0.0,
        0.0,
        0.0,
        1.0
      ],
      "name": "Sketchfab_model"
    },
    {
      "children": [
        2
      ],
      "name": "root"
    },
    {
      "children": [
        3
      ],
      "matrix": [
        1.0,
        0.0,
        0.0,
        0.0,
        0.0,
        2.220446049250313e-16,
        1.0,
        0.0,
        0.0,
        -1.0,
        2.220446049250313e-16,
        0.0,
        0.0,
        0.0,
        0.0,
        1.0
      ],
      "name": "GLTF_SceneRootNode"
    },
    {
      "children": [
        4,
        5,
        6,
        7,
        8,
        9,
        10,
        11
      ],
      "name": "Mesh1.0_0"
    },
    {
      "mesh": 0,
      "name": "Object_4"
    },
    {
      "mesh": 1,
      "name": "Object_5"
    },
    {
      "mesh": 2,
      "name": "Object_6"
    },
    {
      "mesh": 3,
      "name": "Object_7"
    },
    {
      "mesh": 4,
      "name": "Object_8"
    },
    {
      "mesh": 5,
      "name": "Object_9"
    },
    {
      "mesh": 6,
      "name": "Object_10"
    },
    {
      "mesh": 7,
      "name": "Object_11"
    }
  ],
  "scene": 0,
  "scenes": [
    {
      "name": "Sketchfab_Scene",
      "nodes": [
        0
      ]
    }
  ]
}
